<svg width="120" height="40" viewBox="0 0 120 40" fill="none" xmlns="http://www.w3.org/2000/svg">
<g clip-path="url(#clip0_6349_518)">
<path d="M9.53468 0.00013C9.16798 0.00013 8.80568 0.00013 8.43995 0.00213C8.1338 0.00413 7.83009 0.00994 7.52095 0.01483C6.84948 0.0227345 6.17959 0.0818089 5.5171 0.19154C4.85552 0.303663 4.21467 0.515046 3.61622 0.81854C3.0185 1.1246 2.47235 1.5223 1.99757 1.9972C1.5203 2.47077 1.12246 3.01815 0.81935 3.61829C0.5154 4.21724 0.304641 4.85907 0.19435 5.52161C0.0830109 6.18332 0.0230984 6.85265 0.01515 7.52361C0.00587 7.83021 0.00489 8.13783 0 8.44447V31.5587C0.00489 31.8692 0.00587 32.17 0.01515 32.4806C0.0231009 33.1516 0.0830135 33.8209 0.19435 34.4825C0.304336 35.1455 0.515108 35.7877 0.81935 36.3868C1.12233 36.985 1.52022 37.5302 1.99757 38.0011C2.47055 38.4781 3.01705 38.8761 3.61622 39.1798C4.21467 39.4841 4.85545 39.6968 5.5171 39.8106C6.17972 39.9195 6.84956 39.9786 7.521 39.9874C7.83009 39.9942 8.1338 39.9981 8.44 39.9981C8.80567 40.0001 9.168 40.0001 9.53468 40.0001H110.135C110.494 40.0001 110.859 40.0001 111.219 39.9981C111.523 39.9981 111.836 39.9942 112.141 39.9874C112.811 39.9791 113.479 39.92 114.141 39.8106C114.804 39.696 115.448 39.4834 116.049 39.1798C116.647 38.8759 117.193 38.478 117.666 38.0011C118.142 37.5284 118.541 36.9836 118.848 36.3868C119.15 35.7872 119.358 35.1451 119.467 34.4825C119.578 33.8208 119.64 33.1516 119.652 32.4806C119.656 32.17 119.656 31.8692 119.656 31.5587C119.664 31.1954 119.664 30.8341 119.664 30.4649V9.53626C119.664 9.17005 119.664 8.80677 119.656 8.44447C119.656 8.13783 119.656 7.83021 119.652 7.52357C119.64 6.85255 119.578 6.18337 119.467 5.52157C119.358 4.85941 119.149 4.21763 118.848 3.61825C118.23 2.41532 117.252 1.43615 116.049 0.81845C115.448 0.515698 114.804 0.304371 114.141 0.19145C113.48 0.0812327 112.811 0.0221376 112.141 0.01469C111.836 0.00981 111.523 0.00395 111.219 0.002C110.859 0 110.494 0 110.135 0" fill="#A6A6A6"/>
<path d="M111.214 0.875L112.127 0.8877C112.75 0.895099 113.371 0.94945 113.985 1.05029C114.566 1.14898 115.13 1.33362 115.656 1.59814C116.694 2.13299 117.539 2.97916 118.071 4.01807C118.332 4.53758 118.512 5.09351 118.606 5.66699C118.71 6.29099 118.768 6.92174 118.78 7.5542C118.783 7.8374 118.783 8.1416 118.783 8.44434C118.791 8.81934 118.791 9.17627 118.791 9.53613V30.4648C118.791 30.8281 118.791 31.1826 118.783 31.54C118.783 31.8652 118.783 32.1631 118.779 32.4697C118.768 33.0909 118.71 33.7104 118.608 34.3232C118.515 34.9043 118.333 35.4675 118.068 35.9932C117.805 36.5056 117.462 36.9733 117.053 37.3789C116.644 37.7927 116.172 38.1379 115.653 38.4014C115.128 38.6674 114.566 38.8527 113.985 38.9512C113.367 39.0522 112.742 39.1067 112.116 39.1143C111.823 39.1211 111.517 39.125 111.219 39.125L110.135 39.127L8.44482 39.125C8.14014 39.125 7.84282 39.1211 7.54053 39.1143C6.91431 39.1061 6.28955 39.0516 5.67139 38.9512C5.09498 38.8519 4.53659 38.6673 4.01465 38.4033C3.49749 38.1415 3.0258 37.7983 2.61765 37.3867C2.20359 36.98 1.85886 36.5082 1.59714 35.9902C1.33253 35.4688 1.1494 34.9099 1.05414 34.333C0.95126 33.7131 0.8956 33.0863 0.887636 32.458C0.881296 32.2471 0.872986 31.5449 0.872986 31.5449V8.44434C0.872986 8.44434 0.881836 7.75293 0.887686 7.5498C0.895312 6.92248 0.950648 6.29665 1.05322 5.67773C1.14865 5.09925 1.33192 4.53875 1.59668 4.01563C1.85744 3.49793 2.20025 3.02583 2.61182 2.61763C3.02292 2.20559 3.49612 1.86059 4.01416 1.59521C4.5349 1.33209 5.09223 1.14873 5.66748 1.05127C6.28767 0.949836 6.9146 0.894996 7.54299 0.88721L8.44531 0.875" fill="black"/>
<path d="M107.259 20.3008C107.27 19.4662 107.491 18.6478 107.903 17.9218C108.315 17.1959 108.904 16.5859 109.616 16.1488C109.164 15.5036 108.568 14.9727 107.875 14.5981C107.182 14.2236 106.412 14.0157 105.624 13.9911C103.945 13.8148 102.317 14.9959 101.461 14.9959C100.589 14.9959 99.2717 14.0086 97.853 14.0378C96.9353 14.0674 96.041 14.3343 95.2571 14.8123C94.4732 15.2904 93.8265 15.9633 93.3801 16.7656C91.4461 20.1141 92.8887 25.0351 94.7413 27.7417C95.6682 29.0671 96.7514 30.5475 98.1689 30.495C99.5559 30.4375 100.074 29.6105 101.748 29.6105C103.407 29.6105 103.893 30.495 105.339 30.4616C106.828 30.4375 107.765 29.1304 108.66 27.7925C109.326 26.8481 109.838 25.8044 110.178 24.7C109.314 24.3343 108.576 23.7221 108.056 22.9398C107.537 22.1575 107.26 21.2397 107.259 20.3008Z" fill="white"/>
<path d="M104.527 12.2108C105.339 11.2366 105.739 9.98445 105.642 8.72021C104.402 8.85044 103.257 9.44299 102.434 10.3798C102.032 10.8375 101.724 11.3699 101.528 11.9467C101.332 12.5235 101.251 13.1333 101.291 13.7412C101.911 13.7476 102.524 13.6132 103.085 13.3481C103.646 13.083 104.139 12.6942 104.527 12.2108Z" fill="white"/>
<path d="M17.1981 27.1397H12.4647L11.328 30.4961H9.32309L13.8065 18.0781H15.8895L20.3729 30.4961H18.3338L17.1981 27.1397ZM12.9549 25.5909H16.7069L14.8573 20.1436H14.8056L12.9549 25.5909Z" fill="white"/>
<path d="M30.0555 25.9699C30.0555 28.7834 28.5497 30.591 26.2772 30.591C25.7015 30.6211 25.129 30.4885 24.6252 30.2084C24.1214 29.9283 23.7067 29.5119 23.4286 29.007H23.3856V33.4914H21.5272V21.4426H23.326V22.9484H23.3602C23.6511 22.446 24.0729 22.0318 24.5805 21.7499C25.0881 21.4681 25.6627 21.3291 26.243 21.3479C28.5409 21.3479 30.0555 23.1643 30.0555 25.9699ZM28.1454 25.9699C28.1454 24.1369 27.1981 22.9318 25.7528 22.9318C24.3329 22.9318 23.3778 24.1623 23.3778 25.9699C23.3778 27.7942 24.3329 29.0158 25.7528 29.0158C27.1981 29.0158 28.1454 27.8195 28.1454 25.9699Z" fill="white"/>
<path d="M40.0204 25.9699C40.0204 28.7834 38.5145 30.591 36.2421 30.591C35.6664 30.6211 35.0939 30.4885 34.5901 30.2084C34.0863 29.9283 33.6716 29.5119 33.3934 29.007H33.3504V33.4914H31.492V21.4426H33.2908V22.9485H33.325C33.616 22.446 34.0377 22.0318 34.5453 21.7499C35.0529 21.4681 35.6275 21.3291 36.2078 21.3479C38.5057 21.3479 40.0204 23.1643 40.0204 25.9699ZM38.1102 25.9699C38.1102 24.1369 37.1629 22.9319 35.7176 22.9319C34.2977 22.9319 33.3426 24.1623 33.3426 25.9699C33.3426 27.7942 34.2977 29.0158 35.7176 29.0158C37.1629 29.0158 38.1102 27.8196 38.1102 25.9699Z" fill="white"/>
<path d="M46.6063 27.0361C46.744 28.2676 47.9403 29.0761 49.5751 29.0761C51.1415 29.0761 52.2684 28.2676 52.2684 27.1572C52.2684 26.1933 51.5887 25.6162 49.9794 25.2207L48.37 24.833C46.0897 24.2822 45.0311 23.2158 45.0311 21.4854C45.0311 19.3428 46.8983 17.8711 49.5497 17.8711C52.1737 17.8711 53.9725 19.3428 54.0331 21.4854H52.1571C52.0448 20.2461 51.0204 19.4981 49.5233 19.4981C48.0262 19.4981 47.0018 20.2549 47.0018 21.3565C47.0018 22.2344 47.6561 22.751 49.2567 23.1465L50.6249 23.4824C53.1727 24.0849 54.2313 25.1084 54.2313 26.9248C54.2313 29.248 52.3807 30.7031 49.4374 30.7031C46.6834 30.7031 44.8241 29.2822 44.7039 27.0361L46.6063 27.0361Z" fill="white"/>
<path d="M58.242 19.2998V21.4424H59.9637V22.9141H58.242V27.9053C58.242 28.6807 58.5867 29.042 59.3436 29.042C59.5479 29.0384 59.752 29.0241 59.9549 28.999V30.4619C59.6146 30.5255 59.2688 30.5543 58.9227 30.5478C57.0897 30.5478 56.3748 29.8593 56.3748 28.1035V22.9141H55.0584V21.4424H56.3749V19.2998H58.242Z" fill="white"/>
<path d="M60.9608 25.9697C60.9608 23.1211 62.6385 21.3311 65.2547 21.3311C67.8797 21.3311 69.5497 23.1211 69.5497 25.9697C69.5497 28.8262 67.8885 30.6084 65.2547 30.6084C62.6219 30.6084 60.9608 28.8262 60.9608 25.9697ZM67.6561 25.9697C67.6561 24.0156 66.7606 22.8623 65.2547 22.8623C63.7489 22.8623 62.8543 24.0244 62.8543 25.9697C62.8543 27.9316 63.7489 29.0762 65.2547 29.0762C66.7606 29.0762 67.6561 27.9316 67.6561 25.9697Z" fill="white"/>
<path d="M71.0819 21.4425H72.8543V22.9835H72.8973C73.0173 22.5022 73.2992 22.0769 73.6958 21.779C74.0924 21.4811 74.5794 21.3288 75.0751 21.3478C75.2892 21.347 75.5028 21.3703 75.7118 21.4171V23.1554C75.4414 23.0728 75.1594 23.0348 74.8768 23.0431C74.6068 23.0321 74.3377 23.0797 74.0878 23.1826C73.838 23.2855 73.6134 23.4412 73.4294 23.6391C73.2454 23.837 73.1064 24.0724 73.022 24.329C72.9376 24.5857 72.9097 24.8576 72.9403 25.1261V30.4962H71.0819L71.0819 21.4425Z" fill="white"/>
<path d="M84.2801 27.8369C84.0301 29.4805 82.4295 30.6084 80.3817 30.6084C77.7479 30.6084 76.1131 28.8437 76.1131 26.0127C76.1131 23.1729 77.7567 21.3311 80.3036 21.3311C82.8084 21.3311 84.3836 23.0518 84.3836 25.7969V26.4336H77.9891V26.5459C77.9596 26.8791 78.0013 27.2148 78.1115 27.5306C78.2217 27.8464 78.3978 28.1352 78.6281 28.3778C78.8585 28.6203 79.1378 28.8111 79.4476 28.9374C79.7573 29.0637 80.0904 29.1226 80.4247 29.1103C80.8638 29.1515 81.3045 29.0498 81.6812 28.8203C82.058 28.5909 82.3505 28.246 82.5155 27.8369L84.2801 27.8369ZM77.9979 25.1348H82.5243C82.5402 24.8493 82.4997 24.5635 82.4051 24.2936C82.3106 24.0238 82.1638 23.7752 81.9731 23.5621C81.7825 23.349 81.5518 23.1755 81.2941 23.0516C81.0364 22.9276 80.7569 22.8557 80.4714 22.8398C80.4155 22.8367 80.3596 22.8357 80.3036 22.8369C80.0026 22.8351 79.7042 22.8926 79.4254 23.0061C79.1467 23.1197 78.893 23.287 78.6789 23.4985C78.4648 23.7101 78.2945 23.9618 78.1776 24.2391C78.0608 24.5165 77.9997 24.8142 77.9979 25.1152C77.9979 25.1217 77.9979 25.1283 77.9979 25.1348Z" fill="white"/>
<path d="M53.7939 16.0836H53.1406C51.8686 16.0836 50.5268 15.8224 50.5268 14.0621C50.6121 13.2706 50.7934 12.4924 51.0668 11.7448L51.912 11.9713L51.7899 12.3634C51.6091 12.9149 51.4894 13.4845 51.433 14.0621C51.433 15.2731 52.5917 15.2731 53.3759 15.2731H53.9247C54.3168 15.2731 54.8568 15.1163 54.8568 14.6197V11.1783H55.7894V13.7574C55.9903 13.8427 56.207 13.8841 56.4252 13.879H56.7474V14.6808H56.4252C56.2098 14.6793 55.9957 14.6471 55.7894 14.5851V14.7071C55.7895 15.1598 55.4409 16.0836 53.7939 16.0836ZM53.2626 10.2374C53.153 10.2316 53.0475 10.1938 52.9591 10.1288C52.8707 10.0637 52.8032 9.97419 52.7651 9.87126C52.7269 9.76833 52.7197 9.65648 52.7444 9.54951C52.769 9.44254 52.8244 9.34511 52.9037 9.26924C52.9831 9.19337 53.0829 9.14238 53.1908 9.12254C53.2988 9.1027 53.4102 9.11489 53.5113 9.15761C53.6125 9.20032 53.6989 9.27169 53.7599 9.36292C53.821 9.45415 53.854 9.56125 53.8549 9.67102C53.8589 9.81756 53.8045 9.95969 53.7037 10.0661C53.6029 10.1726 53.464 10.2346 53.3174 10.2386C53.2992 10.2391 53.2809 10.2387 53.2626 10.2374Z" fill="white"/>
<path d="M57.7997 13.8788C57.6924 13.4962 57.6424 13.0998 57.6513 12.7025C57.6238 12.4398 57.6525 12.1742 57.7355 11.9234C57.8185 11.6726 57.9539 11.4424 58.1327 11.2479C58.3115 11.0534 58.5296 10.8992 58.7726 10.7955C59.0156 10.6918 59.2778 10.641 59.5419 10.6464C60.7792 10.6464 61.2587 11.6571 61.2587 12.8598C61.2587 13.7484 60.9447 14.9506 59.7338 14.9506C59.3345 14.912 58.942 14.8213 58.5663 14.6806H56.5883V13.8788L57.7997 13.8788ZM58.7407 13.914C59.0367 14.0392 59.3519 14.1129 59.6728 14.1317C60.2128 14.1317 60.3613 13.4433 60.3613 12.8334C60.3613 12.2499 60.1957 11.4135 59.4897 11.4135C58.8539 11.4135 58.5751 12.0058 58.5751 12.7553C58.5633 13.1481 58.6193 13.5401 58.7407 13.914Z" fill="white"/>
<path d="M67.4077 16.0835H66.7543C65.4819 16.0835 64.1401 15.8223 64.1401 14.062C64.2256 13.2705 64.4069 12.4924 64.6801 11.7446L65.5258 11.9712L65.4037 12.3633C65.2227 12.9147 65.1029 13.4844 65.0463 14.062C65.0463 15.2729 66.2055 15.2729 66.9896 15.2729H67.5385C67.9301 15.2729 68.4701 15.1162 68.4701 14.6196V8.80811H69.4027V13.7573C69.6036 13.8425 69.8203 13.884 70.0385 13.8789H70.3607V14.6807H70.0385C69.8231 14.6791 69.609 14.6469 69.4027 14.585V14.707C69.4028 15.1597 69.0541 16.0835 67.4077 16.0835Z" fill="white"/>
<path d="M73.4955 10.6904V13.1387C73.4955 14.1753 72.8764 14.6807 71.6479 14.6807H70.2016V13.8789H71.6137C72.3539 13.8789 72.5541 13.5566 72.5541 13.0078V10.6904H73.4955ZM71.1605 16.6323C71.0509 16.6264 70.9455 16.5886 70.8571 16.5234C70.7688 16.4583 70.7014 16.3688 70.6633 16.2658C70.6252 16.1629 70.6181 16.0511 70.6428 15.9441C70.6674 15.8372 70.7229 15.7398 70.8022 15.664C70.8816 15.5881 70.9814 15.5372 71.0894 15.5174C71.1973 15.4976 71.3087 15.5098 71.4098 15.5525C71.5109 15.5953 71.5973 15.6666 71.6583 15.7578C71.7194 15.8491 71.7524 15.9562 71.7533 16.0659C71.7554 16.1431 71.7413 16.2199 71.7119 16.2914C71.6825 16.3628 71.6385 16.4273 71.5826 16.4807C71.5268 16.534 71.4604 16.5751 71.3877 16.6012C71.315 16.6273 71.2376 16.6379 71.1605 16.6323ZM72.6244 16.6323C72.5148 16.6266 72.4092 16.5889 72.3207 16.5239C72.2322 16.4589 72.1647 16.3694 72.1265 16.2665C72.0883 16.1635 72.081 16.0517 72.1056 15.9447C72.1302 15.8377 72.1855 15.7402 72.2649 15.6643C72.3442 15.5884 72.444 15.5373 72.552 15.5175C72.6599 15.4976 72.7714 15.5097 72.8725 15.5525C72.9737 15.5952 73.0601 15.6665 73.1212 15.7578C73.1823 15.849 73.2153 15.9561 73.2162 16.0659C73.2202 16.2125 73.1658 16.3546 73.065 16.461C72.9642 16.5675 72.8252 16.6295 72.6787 16.6335C72.6606 16.634 72.6425 16.6336 72.6244 16.6323Z" fill="white"/>
<path d="M74.1909 15.9879C74.3237 16.0042 74.4574 16.0129 74.5913 16.0138C75.3588 16.0138 75.7417 15.5695 75.7417 14.672V11.1696H76.6831V13.879H77.5454V14.6808H76.6743C76.6846 15.2748 76.4697 15.8507 76.0727 16.2926C75.6492 16.6469 75.1087 16.8303 74.5571 16.8068C74.3588 16.8036 74.1609 16.7891 73.9643 16.7633L74.1909 15.9879ZM76.1684 10.3244C76.0588 10.3184 75.9533 10.2806 75.865 10.2155C75.7766 10.1504 75.7093 10.0608 75.6712 9.95788C75.6331 9.85494 75.6259 9.74311 75.6506 9.63616C75.6753 9.52922 75.7308 9.43183 75.8101 9.356C75.8895 9.28018 75.9893 9.22923 76.0972 9.20943C76.2052 9.18962 76.3166 9.20184 76.4177 9.24457C76.5188 9.28729 76.6052 9.35867 76.6662 9.44989C76.7272 9.54111 76.7603 9.64819 76.7612 9.75795C76.7633 9.83518 76.7493 9.91201 76.7199 9.98347C76.6905 10.0549 76.6465 10.1194 76.5906 10.1728C76.5347 10.2262 76.4683 10.2673 76.3956 10.2934C76.3229 10.3195 76.2455 10.33 76.1684 10.3244Z" fill="white"/>
<path d="M80.6372 14.6808C80.2615 14.6691 79.8941 14.5675 79.5659 14.3844C79.1148 14.6259 78.6026 14.729 78.0932 14.6808H77.3872V13.879H78.146C78.8599 13.879 78.9995 13.7658 78.9995 13.2433V10.6906H79.9321V13.7223C80.152 13.828 80.3933 13.8817 80.6372 13.879H81.2212V14.6808L80.6372 14.6808ZM79.4262 9.81899C79.3166 9.81307 79.2112 9.77523 79.1228 9.71011C79.0344 9.64499 78.9671 9.55544 78.929 9.45251C78.8909 9.34957 78.8838 9.23774 78.9085 9.13079C78.9331 9.02385 78.9886 8.92646 79.0679 8.85063C79.1473 8.77481 79.2471 8.72386 79.355 8.70405C79.463 8.68425 79.5744 8.69647 79.6755 8.7392C79.7766 8.78192 79.863 8.85329 79.924 8.94452C79.9851 9.03574 80.0181 9.14282 80.019 9.25258C80.0212 9.32981 80.0071 9.40664 79.9777 9.4781C79.9483 9.54956 79.9043 9.61406 79.8484 9.66744C79.7926 9.72082 79.7261 9.76189 79.6534 9.78799C79.5807 9.81409 79.5033 9.82465 79.4262 9.81899Z" fill="white"/>
<path d="M83.4506 10.6906V13.1388C83.4506 14.1754 82.8324 14.6808 81.6039 14.6808H81.0629V13.879H81.5688C82.309 13.879 82.5092 13.5568 82.5092 13.008V10.6906H83.4506ZM82.0649 9.81899C81.9553 9.81307 81.8498 9.77523 81.7614 9.71011C81.6731 9.64499 81.6057 9.55544 81.5676 9.45251C81.5295 9.34957 81.5224 9.23774 81.5471 9.13079C81.5718 9.02385 81.6272 8.92646 81.7066 8.85063C81.7859 8.77481 81.8857 8.72386 81.9937 8.70405C82.1016 8.68425 82.213 8.69647 82.3141 8.7392C82.4152 8.78192 82.5016 8.85329 82.5627 8.94452C82.6237 9.03574 82.6567 9.14282 82.6576 9.25258C82.6598 9.32981 82.6457 9.40664 82.6163 9.4781C82.587 9.54956 82.5429 9.61406 82.4871 9.66744C82.4312 9.72082 82.3648 9.76189 82.292 9.78799C82.2193 9.81409 82.1419 9.82465 82.0649 9.81899ZM83.5287 9.81899C83.4191 9.81307 83.3137 9.77523 83.2253 9.71011C83.137 9.64499 83.0696 9.55544 83.0315 9.45251C82.9934 9.34957 82.9863 9.23774 83.011 9.13079C83.0357 9.02385 83.0911 8.92646 83.1704 8.85063C83.2498 8.77481 83.3496 8.72386 83.4576 8.70405C83.5655 8.68425 83.6769 8.69647 83.778 8.7392C83.8791 8.78192 83.9655 8.85329 84.0265 8.94452C84.0876 9.03574 84.1206 9.14282 84.1215 9.25258C84.1237 9.32981 84.1096 9.40664 84.0802 9.4781C84.0508 9.54956 84.0068 9.61406 83.9509 9.66744C83.8951 9.72082 83.8286 9.76189 83.7559 9.78799C83.6832 9.81409 83.6058 9.82465 83.5287 9.81899Z" fill="white"/>
</g>
<defs>
<clipPath id="clip0_6349_518">
<rect width="119.664" height="40.0001" fill="white"/>
</clipPath>
</defs>
</svg>
