<svg width="24" height="24" viewBox="0 0 24 24" fill="none" xmlns="http://www.w3.org/2000/svg">
<g id="discount-2">
<path id="Vector" d="M8.98961 14.9904L14.9904 8.98958M9.98975 9.48965C9.98975 9.76583 9.76586 9.98971 9.48968 9.98971C9.21349 9.98971 8.98961 9.76583 8.98961 9.48965C8.98961 9.21346 9.21349 8.98958 9.48968 8.98958C9.76586 8.98958 9.98975 9.21346 9.98975 9.48965ZM14.9904 14.4903C14.9904 14.7665 14.7666 14.9904 14.4904 14.9904C14.2142 14.9904 13.9903 14.7665 13.9903 14.4903C13.9903 14.2142 14.2142 13.9903 14.4904 13.9903C14.7666 13.9903 14.9904 14.2142 14.9904 14.4903ZM4.98902 7.18933C4.98902 6.60577 5.22084 6.04611 5.63348 5.63348C6.04611 5.22084 6.60577 4.98902 7.18933 4.98902H8.18947C8.77045 4.98869 9.32772 4.75859 9.73968 4.34893L10.4398 3.64883C10.6443 3.4432 10.8874 3.28002 11.1551 3.16867C11.4229 3.05732 11.71 3 12 3C12.29 3 12.5771 3.05732 12.8449 3.16867C13.1126 3.28002 13.3557 3.4432 13.5602 3.64883L14.2603 4.34893C14.6723 4.75859 15.2296 4.98869 15.8105 4.98902H16.8107C17.3942 4.98902 17.9539 5.22084 18.3665 5.63348C18.7792 6.04611 19.011 6.60577 19.011 7.18933V8.18947C19.0113 8.77045 19.2414 9.32772 19.6511 9.73968L20.3512 10.4398C20.5568 10.6443 20.72 10.8874 20.8313 11.1551C20.9427 11.4229 21 11.71 21 12C21 12.29 20.9427 12.5771 20.8313 12.8449C20.72 13.1126 20.5568 13.3557 20.3512 13.5602L19.6511 14.2603C19.2414 14.6723 19.0113 15.2296 19.011 15.8105V16.8107C19.011 17.3942 18.7792 17.9539 18.3665 18.3665C17.9539 18.7792 17.3942 19.011 16.8107 19.011H15.8105C15.2296 19.0113 14.6723 19.2414 14.2603 19.6511L13.5602 20.3512C13.3557 20.5568 13.1126 20.72 12.8449 20.8313C12.5771 20.9427 12.29 21 12 21C11.71 21 11.4229 20.9427 11.1551 20.8313C10.8874 20.72 10.6443 20.5568 10.4398 20.3512L9.73968 19.6511C9.32772 19.2414 8.77045 19.0113 8.18947 19.011H7.18933C6.60577 19.011 6.04611 18.7792 5.63348 18.3665C5.22084 17.9539 4.98902 17.3942 4.98902 16.8107V15.8105C4.98869 15.2296 4.75859 14.6723 4.34893 14.2603L3.64883 13.5602C3.4432 13.3557 3.28002 13.1126 3.16867 12.8449C3.05732 12.5771 3 12.29 3 12C3 11.71 3.05732 11.4229 3.16867 11.1551C3.28002 10.8874 3.4432 10.6443 3.64883 10.4398L4.34893 9.73968C4.75859 9.32772 4.98869 8.77045 4.98902 8.18947V7.18933Z" stroke="#221F20" stroke-width="1.5" stroke-linecap="round" stroke-linejoin="round"/>
</g>
</svg>
