<svg width="24" height="24" viewBox="0 0 24 24" fill="none" xmlns="http://www.w3.org/2000/svg">
<path d="M11.2909 9.29358C10.3733 8.54046 9.08893 8.5529 8.19633 9.22489C7.17867 8.73496 5.92091 8.98725 5.17498 9.89614C4.29853 10.9642 4.45434 12.5467 5.52511 13.426L8.88739 16.1599C9.47859 15.4392 8.9456 16.0865 11.6374 12.8227C12.5031 11.7869 12.3759 10.1839 11.2909 9.29358ZM10.5501 11.9276L8.68951 14.1834L6.41625 12.3354C5.62229 11.6834 6.08358 10.388 7.11472 10.388C7.59156 10.388 7.80916 10.6372 8.38088 11.0959C8.87579 10.5062 8.8126 10.5816 8.85223 10.5342C9.13724 10.1864 9.59028 10.0597 9.99852 10.1739C10.7546 10.3857 11.0533 11.313 10.5501 11.9276Z" fill="#221F20"/>
<path d="M4.12724 6.19384C4.08913 5.80687 4.37193 5.46227 4.75891 5.42415L10.8315 4.82605C11.2185 4.78794 11.5631 5.07074 11.6012 5.45772C11.6393 5.84469 11.3565 6.1893 10.9695 6.22741L4.89693 6.82551C4.50996 6.86363 4.16535 6.58082 4.12724 6.19384Z" fill="#221F20"/>
<path d="M16.6336 3.96049C15.8187 3.88019 15.174 3.23547 15.0937 2.42056C14.9939 1.40842 14.0926 0.668766 13.0804 0.768491L1.98421 1.86179C0.850622 1.97348 0.0222051 2.98298 0.133882 4.11657L1.57363 18.7308C1.68531 19.8644 2.69481 20.6929 3.82842 20.5812L6.54075 20.3139C6.9909 20.2696 7.3692 20.6479 7.3248 21.0981C7.27914 21.561 7.61742 21.9732 8.08034 22.0189L20.1715 23.2102C21.3051 23.3219 22.3146 22.4934 22.4263 21.3598L23.8661 6.74561C23.9777 5.61203 23.1493 4.60254 22.0158 4.49084L16.6336 3.96049ZM5.07974 18.917C4.01484 19.022 3.06651 18.2437 2.96159 17.1788L1.798 5.36788C1.69309 4.30299 2.47129 3.35468 3.53617 3.24975L11.6093 2.45428C12.6742 2.34935 13.6225 3.12754 13.7274 4.19242L14.8914 16.0034C14.9963 17.0683 14.2181 18.0166 13.1532 18.1216L5.07974 18.917ZM21.0384 19.8079C20.9335 20.8728 19.9852 21.651 18.9203 21.5461L9.18552 20.5869C9.03817 20.5724 8.93049 20.4412 8.94503 20.2938C8.95759 20.1666 9.05827 20.0659 9.18552 20.0534L14.7052 19.5095C15.8388 19.3978 16.6672 18.3883 16.5555 17.2547L15.6167 7.72799C15.4969 6.51198 16.5189 5.49001 17.7349 5.60983L20.4638 5.87873C21.5287 5.98365 22.3069 6.93196 22.202 7.99685L21.0384 19.8079Z" fill="#221F20" stroke="#221F20" stroke-width="0.125"/>
</svg>
