<svg width="24" height="24" viewBox="0 0 24 24" fill="none" xmlns="http://www.w3.org/2000/svg">
<g id="Health">
<path id="Vector" d="M12 10.7617C12 11.4521 12.5596 12.0117 13.25 12.0117C12.5596 12.0117 12 12.5714 12 13.2617C12 12.5714 11.4404 12.0117 10.75 12.0117C11.4404 12.0117 12 11.4521 12 10.7617Z" stroke="#221F20" stroke-width="2" stroke-miterlimit="10"/>
<path id="Vector_2" d="M19.4998 12.5834L11.9998 20.0114L4.49981 12.5834C4.00512 12.102 3.61546 11.5234 3.35536 10.884C3.09527 10.2447 2.97037 9.55836 2.98855 8.86834C3.00673 8.17832 3.16758 7.49954 3.46097 6.87474C3.75436 6.24994 4.17395 5.69266 4.6933 5.23799C5.21265 4.78331 5.82052 4.4411 6.47862 4.23289C7.13673 4.02468 7.83082 3.95499 8.51718 4.02821C9.20354 4.10143 9.86731 4.31596 10.4667 4.65831C11.0661 5.00066 11.5881 5.46341 11.9998 6.01741C12.4133 5.46743 12.9359 5.00873 13.5349 4.67001C14.1339 4.3313 14.7963 4.11986 15.4807 4.04893C16.1652 3.978 16.8569 4.04911 17.5126 4.2578C18.1683 4.46649 18.7738 4.80828 19.2914 5.26177C19.8089 5.71526 20.2272 6.27069 20.5202 6.8933C20.8132 7.51591 20.9746 8.19229 20.9941 8.88012C21.0137 9.56794 20.8911 10.2524 20.6339 10.8907C20.3768 11.5289 19.9907 12.1072 19.4998 12.5894" stroke="#221F20" stroke-width="2" stroke-linecap="round" stroke-linejoin="round"/>
</g>
</svg>
