<svg width="18" height="20" viewBox="0 0 18 20" fill="none" xmlns="http://www.w3.org/2000/svg">
<g id="Group">
<g id="Group_2">
<path id="Vector" fill-rule="evenodd" clip-rule="evenodd" d="M16.6668 6.00006C16.6668 3.9797 15.1688 2.30902 13.2235 2.03835C13.2458 0.954009 12.3735 0 11.2221 0H5.44439C4.29337 0 3.4207 0.954009 3.4437 2.03835C1.49801 2.30902 0 3.98004 0 6.00006V16.0002C0 18.2092 1.79102 20.0002 4.00004 20.0002H10.3334C10.5102 20.0002 10.6798 19.93 10.8048 19.8049C10.9299 19.6799 11.0001 19.5103 11.0001 19.3335C11.0001 19.1567 10.9299 18.9871 10.8048 18.8621C10.6798 18.7371 10.5102 18.6668 10.3334 18.6668H4.00004C3.29279 18.6668 2.6145 18.3859 2.1144 17.8858C1.6143 17.3857 1.33335 16.7074 1.33335 16.0002V6.00006C1.33332 5.33549 1.58144 4.69486 2.02909 4.20368C2.47673 3.7125 3.09165 3.40617 3.75337 3.3447L3.91337 3.89337C4.03454 4.3088 4.28718 4.67373 4.63338 4.93338C4.97957 5.19303 5.40064 5.33338 5.83339 5.33338H10.8334C11.2662 5.33338 11.6873 5.19303 12.0334 4.93338C12.3796 4.67373 12.6323 4.3088 12.7535 3.89337L12.9135 3.3447C13.5752 3.40617 14.1901 3.7125 14.6377 4.20368C15.0854 4.69486 15.3335 5.33549 15.3335 6.00006V10.0001C15.3335 10.1769 15.4037 10.3465 15.5287 10.4715C15.6538 10.5965 15.8233 10.6668 16.0002 10.6668C16.177 10.6668 16.3465 10.5965 16.4716 10.4715C16.5966 10.3465 16.6668 10.1769 16.6668 10.0001V6.00006ZM5.44439 1.33335C5.34089 1.33335 5.23881 1.35744 5.14624 1.40373C5.05367 1.45001 4.97315 1.51722 4.91105 1.60002C4.84895 1.68281 4.80698 1.77893 4.78847 1.88076C4.76995 1.98259 4.7754 2.08733 4.80438 2.18669L5.19338 3.52003C5.23377 3.65851 5.31799 3.78015 5.43339 3.8667C5.54878 3.95325 5.68914 4.00004 5.83339 4.00004H10.8334C10.9777 4.00004 11.118 3.95325 11.2334 3.8667C11.3488 3.78015 11.4331 3.65851 11.4734 3.52003L11.8624 2.18669C11.8914 2.08733 11.8969 1.98259 11.8784 1.88076C11.8598 1.77893 11.8179 1.68281 11.7558 1.60002C11.6937 1.51722 11.6132 1.45001 11.5206 1.40373C11.428 1.35744 11.3259 1.33335 11.2224 1.33335H5.44439Z" fill="#221F20"/>
<path id="Vector_2" d="M4.3333 7.66699C4.15649 7.66699 3.98692 7.73723 3.86189 7.86226C3.73686 7.98728 3.66663 8.15685 3.66663 8.33367C3.66663 8.51048 3.73686 8.68005 3.86189 8.80507C3.98692 8.9301 4.15649 9.00034 4.3333 9.00034H12.3334C12.5102 9.00034 12.6798 8.9301 12.8048 8.80507C12.9298 8.68005 13 8.51048 13 8.33367C13 8.15685 12.9298 7.98728 12.8048 7.86226C12.6798 7.73723 12.5102 7.66699 12.3334 7.66699H4.3333ZM4.3333 11.0004C4.15649 11.0004 3.98692 11.0706 3.86189 11.1956C3.73686 11.3206 3.66663 11.4902 3.66663 11.667C3.66663 11.8438 3.73686 12.0134 3.86189 12.1384C3.98692 12.2635 4.15649 12.3337 4.3333 12.3337H6.49999C6.6768 12.3337 6.84637 12.2635 6.9714 12.1384C7.09642 12.0134 7.16666 11.8438 7.16666 11.667C7.16666 11.4902 7.09642 11.3206 6.9714 11.1956C6.84637 11.0706 6.6768 11.0004 6.49999 11.0004H4.3333ZM3.66663 15.0004C3.66663 14.8236 3.73686 14.654 3.86189 14.529C3.98692 14.404 4.15649 14.3337 4.3333 14.3337H6.49999C6.6768 14.3337 6.84637 14.404 6.9714 14.529C7.09642 14.654 7.16666 14.8236 7.16666 15.0004C7.16666 15.1772 7.09642 15.3468 6.9714 15.4718C6.84637 15.5968 6.6768 15.6671 6.49999 15.6671H4.3333C4.15649 15.6671 3.98692 15.5968 3.86189 15.4718C3.73686 15.3468 3.66663 15.1772 3.66663 15.0004Z" fill="#221F20"/>
<path id="Vector_3" fill-rule="evenodd" clip-rule="evenodd" d="M13.4383 12.7419C13.2176 12.5076 12.9513 12.321 12.6558 12.1934C12.3603 12.0658 12.0418 12 11.72 12C11.3981 12 11.0797 12.0658 10.7842 12.1934C10.4887 12.321 10.2224 12.5076 10.0016 12.7419C9.11062 13.6809 9.11062 15.1679 10.0016 16.1069L13.183 19.4593C13.2453 19.5249 13.3203 19.5772 13.4034 19.6129C13.4866 19.6487 13.5762 19.6671 13.6667 19.6671C13.7572 19.6671 13.8467 19.6487 13.9299 19.6129C14.013 19.5772 14.088 19.5249 14.1503 19.4593L17.3317 16.1069C18.2227 15.1679 18.2227 13.6809 17.3317 12.7419C17.111 12.5076 16.8447 12.321 16.5492 12.1934C16.2537 12.0658 15.9352 12 15.6134 12C15.2915 12 14.973 12.0658 14.6775 12.1934C14.382 12.321 14.1157 12.5076 13.895 12.7419L13.6667 12.9825L13.4383 12.7419ZM10.969 13.6599C11.0651 13.5569 11.1814 13.4749 11.3106 13.4188C11.4398 13.3626 11.5791 13.3337 11.72 13.3337C11.8608 13.3337 12.0002 13.3626 12.1294 13.4188C12.2586 13.4749 12.3748 13.5569 12.471 13.6599L13.183 14.4099C13.2453 14.4755 13.3203 14.5278 13.4034 14.5636C13.4866 14.5993 13.5762 14.6177 13.6667 14.6177C13.7572 14.6177 13.8467 14.5993 13.9299 14.5636C14.013 14.5278 14.088 14.4755 14.1503 14.4099L14.8623 13.6599C14.9585 13.5569 15.0748 13.4749 15.204 13.4188C15.3332 13.3626 15.4725 13.3337 15.6134 13.3337C15.7542 13.3337 15.8935 13.3626 16.0227 13.4188C16.1519 13.4749 16.2682 13.5569 16.3644 13.6599C16.5585 13.8672 16.6665 14.1405 16.6665 14.4245C16.6665 14.7085 16.5585 14.9819 16.3644 15.1892L13.6667 18.0319L10.9686 15.1892C10.7745 14.9819 10.6665 14.7085 10.6665 14.4245C10.6665 14.1405 10.7745 13.8672 10.9686 13.6599H10.969Z" fill="#221F20"/>
</g>
</g>
</svg>
