<svg width="24" height="24" viewBox="0 0 24 24" fill="none" xmlns="http://www.w3.org/2000/svg">
<path d="M8.83574 20.9996C12.0104 20.9996 14.6368 18.3911 14.6368 15.1634C14.6368 14.2985 14.4469 13.4863 14.1094 12.7481C13.1813 13.1489 12.5273 14.077 12.5273 15.1634C12.5273 17.1794 10.8771 18.8901 8.83574 18.8901C6.80009 18.8901 5.14415 17.199 5.14415 15.1634C5.14415 13.1277 6.80009 11.4718 8.83574 11.4718C9.01501 11.4718 9.19438 11.4823 9.37365 11.5139C9.79551 10.8389 10.3229 10.2483 10.9558 9.76311C10.3018 9.50997 9.5846 9.3623 8.83574 9.3623C5.62936 9.3623 2.99951 11.957 2.99951 15.1634C2.99951 18.3697 5.62936 20.9996 8.83574 20.9996Z" fill="#221F20"/>
<path d="M14.784 3.5816C14.0177 2.81526 12.7781 2.8065 11.9999 3.55379C11.2227 2.8065 9.98258 2.81526 9.21575 3.5816C8.44013 4.35722 8.44013 5.61847 9.21575 6.39406L11.9999 9.21334L14.784 6.39406C15.5596 5.61844 15.5596 4.35718 14.784 3.5816Z" fill="#221F20"/>
<path d="M15.1641 18.8901C14.9848 18.8901 14.8055 18.8796 14.6262 18.848C14.2043 19.523 13.677 20.1136 13.0441 20.5988C13.698 20.8519 14.4152 20.9996 15.1641 20.9996C18.3705 20.9996 21.0003 18.3697 21.0003 15.1634C21.0003 11.957 18.3705 9.3623 15.1641 9.3623C11.9797 9.3623 9.36304 11.9461 9.36304 15.1634C9.36304 16.0283 9.55289 16.8756 9.89041 17.6138C10.8186 17.213 11.4725 16.2498 11.4725 15.1634C11.4725 13.1474 13.1227 11.4718 15.1641 11.4718C17.1997 11.4718 18.8557 13.1277 18.8557 15.1634C18.8557 17.199 17.1997 18.8901 15.1641 18.8901Z" fill="#221F20"/>
</svg>
