<svg width="39" height="39" viewBox="0 0 39 39" fill="none" xmlns="http://www.w3.org/2000/svg">
<path d="M9.21875 35.0823C9.40643 35.0823 9.59435 35.0771 9.78249 35.0674C9.77974 35.2309 9.77791 36.2359 9.77791 36.2359C10.1338 36.3689 13.9996 38.7305 19.6656 38.7305C22.8704 38.7305 26.0796 37.9729 28.9461 36.5398L29.5533 36.2359V35.557C29.5533 35.257 29.5483 34.956 29.5389 34.655C32.4864 34.5371 35.3268 33.6138 37.8166 31.9542L38.4286 31.5459L38.2845 30.8247C35.7324 18.0643 25.5843 13.0948 25.3595 12.887L27.1647 6.91017C27.2917 6.49498 27.356 6.06262 27.356 5.625C27.356 3.2016 25.3847 1.23047 22.9615 1.23047C21.6505 1.23047 20.4713 1.80679 19.6656 2.71866C18.8597 1.80679 17.6807 1.23047 16.3697 1.23047C13.9465 1.23047 11.9752 3.2016 11.9752 5.625C11.9752 6.06262 12.0393 6.49498 12.1651 6.90651L13.9719 12.887C13.7334 13.1074 3.60703 18.0233 1.04675 30.8247L0.931396 31.4012C1.12091 31.531 3.97873 35.0826 9.21875 35.0823ZM16.3697 3.42773C17.5812 3.42773 18.567 4.4101 18.567 5.61768H20.7642C20.7642 4.4101 21.75 3.42773 22.9615 3.42773C24.173 3.42773 25.1588 4.4133 25.1588 5.625C25.1588 5.84473 25.1267 6.06102 25.0624 6.27136L23.2442 12.29H16.0868L14.2679 6.26793C14.2045 6.06102 14.1724 5.84473 14.1724 5.625C14.1724 4.4133 15.1582 3.42773 16.3697 3.42773ZM15.5753 14.4873H23.7557C24.1329 14.8249 33.3054 19.0228 35.9711 30.5205C33.9581 31.7171 31.7105 32.379 29.388 32.4616C29.015 28.933 28.0182 25.4398 26.4895 22.3824L25.0427 19.4888L23.0775 20.4716L24.5241 23.3652C26.251 26.8185 27.2443 30.8775 27.3473 34.8681C22.4893 37.0743 16.8421 37.0743 11.9841 34.8681C12.0871 30.8775 13.0804 26.8185 14.8071 23.3652L16.2537 20.4716L14.2885 19.4888L12.8419 22.3824C11.256 25.5542 10.2425 29.1948 9.90425 32.8578C7.51816 33.0437 5.14053 32.2536 3.32756 30.6626C5.95215 19.0306 15.2045 14.8203 15.5753 14.4873Z" fill="#6D0431" stroke="white" stroke-width="0.5"/>
</svg>
