<svg width="24" height="40" viewBox="0 0 24 40" fill="none" xmlns="http://www.w3.org/2000/svg">
<path d="M23.2567 11.5536V1.65691C23.2567 0.746914 22.5767 0.0869141 21.6401 0.0869141H2.48008C1.50674 0.0869141 0.743408 0.776914 0.743408 1.65691V11.5536C0.743408 17.0552 5.07008 22.1852 10.4084 22.9902C10.4384 22.9936 10.8467 23.0386 11.3334 23.0702V35.4719L6.39174 37.5886C5.86674 37.8119 5.56674 38.3819 5.68008 38.9452C5.79508 39.5052 6.29508 39.9119 6.86674 39.9119L17.0717 39.9102C17.0884 39.9119 17.1101 39.9119 17.1251 39.9119C17.1384 39.9119 17.1517 39.9119 17.1634 39.9102C17.8184 39.8919 18.3434 39.3569 18.3434 38.7002C18.3434 38.1319 17.9567 37.6452 17.5167 37.5569L12.6667 35.4786V23.0786C18.3234 22.8669 23.2567 17.5219 23.2567 11.5536ZM2.07841 1.65691C2.07841 1.49358 2.31341 1.42025 2.48008 1.42025H21.6401C21.9217 1.42025 21.9217 1.56191 21.9217 1.65691V10.2902C21.9184 10.2936 21.9151 10.2969 21.9101 10.3019C21.0867 11.0352 18.5801 13.2786 12.7001 10.0002C11.1151 9.11691 9.56674 8.67191 8.07841 8.67191C7.37508 8.67191 6.68341 8.77191 6.00841 8.97025C4.34341 9.46025 3.03341 10.4802 2.08007 11.4869L2.07841 1.65691ZM2.24841 13.3452C2.25008 13.3419 2.25341 13.3386 2.25674 13.3352C3.08507 12.2386 4.47341 10.8136 6.38341 10.2502C8.13674 9.73191 10.0384 10.0436 12.0501 11.1669C16.0901 13.4186 19.3267 13.6869 21.9134 11.9802C21.6851 17.1319 17.3801 21.6536 12.4901 21.7619C12.4801 21.7619 12.4701 21.7619 12.4601 21.7619C11.7851 21.8136 10.5884 21.6702 10.5851 21.6686C6.47841 21.0486 3.04008 17.4919 2.24841 13.3452ZM7.45507 38.5802L11.9401 36.6202L16.7084 38.5802H7.45507Z" fill="#6D0431"/>
</svg>
