<svg width="41" height="40" viewBox="0 0 41 40" fill="none" xmlns="http://www.w3.org/2000/svg">
<path d="M14.4667 39.1663H11.2001C10.7434 39.1663 10.3176 38.9863 10.0009 38.658C9.68341 38.3297 9.51758 37.8955 9.53341 37.4372L10.2534 17.818C7.78425 16.7913 6.16675 14.3947 6.16675 11.6663C6.16675 7.24884 8.76425 0.833008 12.8334 0.833008C16.9026 0.833008 19.5001 7.24884 19.5001 11.6663C19.5001 14.3947 17.8826 16.7913 15.4134 17.818L16.1334 37.4363C16.1492 37.8963 15.9834 38.3305 15.6659 38.6588C15.3492 38.9872 14.9234 39.1663 14.4667 39.1663ZM12.8334 2.49967C10.2584 2.49967 7.83341 7.66384 7.83341 11.6663C7.83341 13.8763 9.24841 15.7972 11.3534 16.4447C11.7142 16.5555 11.9551 16.8947 11.9417 17.2713L11.2001 37.4963L14.4667 37.4988L13.7251 17.2713C13.7109 16.8947 13.9526 16.5555 14.3134 16.4447C16.4184 15.7972 17.8334 13.8763 17.8334 11.6663C17.8334 7.66384 15.4084 2.49967 12.8334 2.49967Z" fill="#6D0431"/>
<path d="M30.3001 39.1662H27.0334C26.5767 39.1662 26.1509 38.9854 25.8351 38.6579C25.5176 38.3287 25.3517 37.8954 25.3676 37.437L26.0967 17.7354C25.5334 17.4604 25.0051 17.082 24.5451 16.6229C23.4426 15.5304 22.8342 14.0654 22.8342 12.4995C22.8342 11.9145 22.8601 11.3454 22.9126 10.7587L23.6709 2.42452C23.7126 1.96702 24.1092 1.63452 24.5767 1.67036C25.0351 1.71202 25.3726 2.11786 25.3309 2.57619L24.5726 10.9095C24.5242 11.4454 24.5009 11.9662 24.5009 12.5004C24.5009 13.6179 24.9342 14.6629 25.7209 15.442C26.1617 15.8829 26.6817 16.2154 27.2259 16.4054C27.5709 16.5262 27.7976 16.857 27.7834 17.2229L27.0334 37.4979L30.3001 37.5004L29.5509 17.2229C29.5376 16.8579 29.7634 16.5262 30.1084 16.4054C30.6526 16.2145 31.1726 15.8829 31.6109 15.4445C32.4001 14.6629 32.8334 13.6179 32.8334 12.5004C32.8334 11.9662 32.8101 11.4454 32.7617 10.9079L32.0034 2.57536C31.9617 2.11702 32.2992 1.71119 32.7576 1.66952C33.2151 1.63452 33.6217 1.96619 33.6634 2.42369L34.4217 10.757C34.4742 11.3454 34.5001 11.9145 34.5001 12.4995C34.5001 14.0645 33.8917 15.5304 32.7867 16.6254C32.3284 17.0829 31.8001 17.4604 31.2376 17.7362L31.9667 37.4362C31.9826 37.8962 31.8167 38.3304 31.4992 38.6587C31.1834 38.9862 30.7576 39.167 30.3009 39.167L30.3001 39.1662Z" fill="#6D0431"/>
<path d="M30.3336 11.6664C29.8828 11.6664 29.5119 11.3072 29.5011 10.8539L29.2928 2.52058C29.2811 2.06058 29.6444 1.67808 30.1053 1.66724C30.5653 1.63224 30.9478 2.01891 30.9586 2.47974L31.1669 10.8131C31.1786 11.2731 30.8153 11.6556 30.3544 11.6664C30.3478 11.6664 30.3403 11.6664 30.3336 11.6664Z" fill="#6D0431"/>
<path d="M27.0001 11.6663C26.9934 11.6663 26.9859 11.6663 26.9793 11.6663C26.5193 11.6546 26.1551 11.273 26.1668 10.813L26.3751 2.47964C26.3868 2.01964 26.7709 1.63298 27.2284 1.66714C27.6884 1.67881 28.0526 2.06048 28.0409 2.52048L27.8326 10.8538C27.8218 11.3063 27.4509 11.6663 27.0001 11.6663Z" fill="#6D0431"/>
</svg>
