<svg width="40" height="40" viewBox="0 0 40 40" fill="none" xmlns="http://www.w3.org/2000/svg">
<path d="M31.6666 4.99978H30.4718L28.2144 1.23761C28.1493 1.12904 28.0602 1.03676 27.954 0.967802C27.8478 0.898847 27.7273 0.855032 27.6016 0.839695C27.5516 0.833862 27.3821 0.833195 27.3428 0.833195H12.7221C12.6754 0.833195 12.4633 0.831279 12.3982 0.839695C12.2725 0.855032 12.1519 0.898847 12.0457 0.967802C11.9395 1.03676 11.8505 1.12904 11.7853 1.23761L9.52808 4.99978H8.33325C6.34481 5.00199 4.43843 5.79287 3.03239 7.19892C1.62634 8.60496 0.835458 10.5113 0.833252 12.4998V34.9996C0.83398 35.6624 0.833252 37.7004 1.56629 38.4334C2.29933 39.1665 4.3371 39.1657 4.99992 39.1664L34.9999 39.1665C35.6627 39.1657 37.7005 39.1665 38.4335 38.4334C39.1666 37.7004 39.1659 36.0793 39.1666 35.4164V12.4998C39.1644 10.5113 38.3735 8.60496 36.9674 7.19892C35.5614 5.79287 33.655 5.00199 31.6666 4.99978ZM29.0283 5.83311L24.8348 12.8229L21.1783 9.16645L27.3348 3.01003L29.0283 5.83311ZM21.1173 14.1664H18.8826L18.0713 12.2735L19.9999 10.3449L21.9287 12.2736L21.1173 14.1664ZM23.2738 29.7141L19.9999 32.988L16.726 29.7141L19.0388 15.8331H20.961L23.2738 29.7141ZM25.4882 2.49978L19.9999 7.98803L14.5117 2.49978H25.4882ZM12.6651 3.01003L18.8215 9.16645L15.1651 12.8229L10.9716 5.83311L12.6651 3.01003ZM37.5879 35.3284C37.5878 35.5494 37.5879 36.9233 37.2557 37.2555C36.9234 37.5878 35.2209 37.4996 34.9999 37.4998L4.99992 37.4999C4.77895 37.4998 2.98841 37.4998 2.74417 37.2555C2.49992 37.0113 2.49992 35.2205 2.49976 34.9996L2.49992 12.4998C2.50179 10.9533 3.11698 9.47062 4.21053 8.37706C5.30409 7.2835 6.78673 6.66832 8.33325 6.66645H9.52808L14.2854 14.5953C14.3506 14.7039 14.4396 14.7961 14.5458 14.8651C14.652 14.934 14.7726 14.9779 14.8983 14.9932C14.932 14.9974 14.9659 14.9996 14.9999 14.9998C15.2209 14.9997 15.4328 14.9119 15.5891 14.7556L16.8023 13.5424L17.4713 15.1032L15.0113 29.8629C14.9895 29.9937 14.9993 30.1278 15.0398 30.2541C15.0802 30.3803 15.1503 30.4951 15.244 30.5889L19.4107 34.7555C19.5669 34.9118 19.7789 34.9996 19.9999 34.9996C20.2209 34.9996 20.4328 34.9118 20.5891 34.7555L24.7558 30.5889C24.8495 30.4951 24.9195 30.3803 24.96 30.2541C25.0005 30.1278 25.0103 29.9937 24.9885 29.8629L22.5285 15.1032L23.1974 13.5424L24.4108 14.7556C24.567 14.9119 24.7789 14.9997 24.9999 14.9998C25.0339 14.9996 25.0679 14.9975 25.1017 14.9933C25.2274 14.9779 25.3479 14.9341 25.4541 14.8652C25.5603 14.7962 25.6494 14.7039 25.7145 14.5954L30.4718 6.66645H31.6666C33.2131 6.66832 34.6957 7.2835 35.7893 8.37706C36.8829 9.47062 37.498 10.9533 37.4999 12.4998L37.5879 35.3284Z" fill="#6D0431"/>
</svg>
