<svg xmlns="http://www.w3.org/2000/svg" xmlns:xlink="http://www.w3.org/1999/xlink" zoomAndPan="magnify" preserveAspectRatio="xMidYMid meet" version="1.2" viewBox="84.94 149.44 206.1 69.57"><defs><clipPath id="d2cf836d12"><path d="M 137 168.539062 L 147.28125 168.539062 L 147.28125 192 L 137 192 Z M 137 168.539062 "/></clipPath><clipPath id="4357f136f6"><path d="M 137 169 L 147.28125 169 L 147.28125 193 L 137 193 Z M 137 169 "/></clipPath><clipPath id="e1a04e8d3e"><path d="M 147 168.539062 L 158.953125 168.539062 L 158.953125 191.789062 L 147 191.789062 Z M 147 168.539062 "/></clipPath><clipPath id="33b0ac5c2d"><path d="M 102.46875 182 L 113.71875 182 L 113.71875 191.707031 L 102.46875 191.707031 Z M 102.46875 182 "/></clipPath><clipPath id="b2835514f8"><path d="M 102.46875 182 L 113.71875 182 L 113.71875 185 L 102.46875 185 Z M 102.46875 182 "/></clipPath><clipPath id="a08c93ae7f"><path d="M 104 184 L 112 184 L 112 191.707031 L 104 191.707031 Z M 104 184 "/></clipPath><clipPath id="30325bf112"><path d="M 106 182 L 110 182 L 110 191.707031 L 106 191.707031 Z M 106 182 "/></clipPath><clipPath id="3534656040"><path d="M 102.46875 181.957031 L 113.71875 181.957031 L 113.71875 191.707031 L 102.46875 191.707031 Z M 102.46875 181.957031 "/></clipPath></defs><g id="172737bd51"><g style="fill:#ff6a94;fill-opacity:1;"><g transform="translate(157.659369, 182.036765)"><path style="stroke:none" d="M 0 0 L -1 -1 L -1 -3.015625 L 0 -4.015625 L 10.03125 -4.015625 L 10.03125 0 Z M 0 0 "/></g></g><g style="fill:#ff6a94;fill-opacity:1;"><g transform="translate(167.688503, 182.036765)"><path style="stroke:none" d="M 0 0 L -1 -1 L -1 -3.015625 L 0 -4.015625 L 10.03125 -4.015625 L 10.03125 0 Z M 0 0 "/></g></g><g style="fill:#ff6a94;fill-opacity:1;"><g transform="translate(177.717637, 182.036765)"><path style="stroke:none" d="M 0 0 L -1 -1 L -1 -3.015625 L 0 -4.015625 L 10.03125 -4.015625 L 10.03125 0 Z M 0 0 "/></g></g><g style="fill:#ff6a94;fill-opacity:1;"><g transform="translate(187.746771, 182.036765)"><path style="stroke:none" d="M 0 0 L -1 -1 L -1 -3.015625 L 0 -4.015625 L 10.03125 -4.015625 L 10.03125 0 Z M 0 0 "/></g></g><g style="fill:#ff6a94;fill-opacity:1;"><g transform="translate(197.775904, 182.036765)"><path style="stroke:none" d="M 0 0 L -1 -1 L -1 -3.015625 L 0 -4.015625 L 10.03125 -4.015625 L 10.03125 0 Z M 0 0 "/></g></g><g style="fill:#ff6a94;fill-opacity:1;"><g transform="translate(207.805038, 182.036765)"><path style="stroke:none" d="M 0 0 L -1 -1 L -1 -3.015625 L 0 -4.015625 L 10.03125 -4.015625 L 10.03125 0 Z M 0 0 "/></g></g><g style="fill:#ff6a94;fill-opacity:1;"><g transform="translate(217.834172, 182.036765)"><path style="stroke:none" d="M 0 0 L -1 -1 L -1 -3.015625 L 0 -4.015625 L 10.03125 -4.015625 L 10.03125 0 Z M 0 0 "/></g></g><g style="fill:#ff6a94;fill-opacity:1;"><g transform="translate(227.863306, 182.036765)"><path style="stroke:none" d="M 0 0 L -1 -1 L -1 -3.015625 L 0 -4.015625 L 2 -4.015625 L 2 -32.59375 L 6.015625 -32.59375 L 6.015625 -2 L 4.015625 0 Z M 0 0 "/></g></g><g style="fill:#ff6a94;fill-opacity:1;"><g transform="translate(235.886617, 182.036765)"><path style="stroke:none" d="M 2 0 L 2 -32.59375 L 6.015625 -32.59375 L 6.015625 -4.015625 L 8.015625 -4.015625 L 8.015625 0 Z M 2 0 "/></g></g><g style="fill:#ff6a94;fill-opacity:1;"><g transform="translate(243.909927, 182.036765)"><path style="stroke:none" d="M 0 0 L -1 -1 L -1 -3.015625 L 0 -4.015625 L 10.03125 -4.015625 L 10.03125 0 Z M 0 0 "/></g></g><g style="fill:#ff6a94;fill-opacity:1;"><g transform="translate(253.939061, 182.036765)"><path style="stroke:none" d="M 0 0 L -1 -1 L -1 -3.015625 L 0 -4.015625 L 10.03125 -4.015625 L 10.03125 0 Z M 0 0 "/></g></g><g style="fill:#ff6a94;fill-opacity:1;"><g transform="translate(263.968195, 182.036765)"><path style="stroke:none" d="M 0 0 L -1 -1 L -1 -3.015625 L 0 -4.015625 L 10.03125 -4.015625 L 10.03125 0 Z M 0 0 "/></g></g><g style="fill:#ff6a94;fill-opacity:1;"><g transform="translate(273.997329, 182.036765)"><path style="stroke:none" d="M 0 0 L -1 -1 L -1 -3.015625 L 0 -4.015625 L 4.515625 -4.015625 C 3.742188 -4.679688 3.128906 -5.472656 2.671875 -6.390625 C 2.222656 -7.304688 2 -8.300781 2 -9.375 L 2 -16.046875 L 4.015625 -18.046875 L 13.53125 -18.046875 L 15.84375 -16.046875 L 15.84375 -14.046875 L 6.015625 -14.046875 L 6.015625 -9.375 C 6.015625 -7.101562 6.75 -5.316406 8.21875 -4.015625 L 17.046875 -4.015625 L 17.046875 0 Z M 0 0 "/></g></g><g clip-rule="nonzero" clip-path="url(#d2cf836d12)"><path style=" stroke:none;fill-rule:nonzero;fill:#ff6a94;fill-opacity:1;" d="M 157.363281 171.921875 C 159.453125 174.011719 160.746094 176.898438 160.746094 180.085938 C 160.746094 183.273438 159.453125 186.15625 157.363281 188.246094 C 155.277344 190.335938 152.390625 191.625 149.203125 191.625 C 146.015625 191.625 143.128906 190.335938 141.042969 188.246094 C 138.953125 186.15625 137.660156 183.273438 137.660156 180.085938 C 137.660156 176.898438 138.953125 174.011719 141.042969 171.921875 C 143.128906 169.832031 146.015625 168.542969 149.203125 168.542969 C 152.390625 168.542969 155.277344 169.832031 157.363281 171.921875 M 160.53125 180.085938 C 160.53125 176.957031 159.261719 174.125 157.214844 172.074219 C 155.164062 170.023438 152.332031 168.757812 149.203125 168.757812 C 146.074219 168.757812 143.242188 170.023438 141.195312 172.074219 C 139.144531 174.125 137.875 176.957031 137.875 180.085938 C 137.875 183.210938 139.144531 186.042969 141.195312 188.09375 C 143.242188 190.144531 146.074219 191.410156 149.203125 191.410156 C 152.332031 191.410156 155.164062 190.144531 157.214844 188.09375 C 159.261719 186.042969 160.53125 183.210938 160.53125 180.085938 Z M 160.53125 180.085938 "/></g><g clip-rule="nonzero" clip-path="url(#4357f136f6)"><path style=" stroke:none;fill-rule:nonzero;fill:#efbbb7;fill-opacity:1;" d="M 157.363281 172.6875 C 159.453125 174.777344 160.746094 177.664062 160.746094 180.847656 C 160.746094 184.035156 159.453125 186.921875 157.363281 189.011719 C 155.277344 191.101562 152.390625 192.390625 149.203125 192.390625 C 146.015625 192.390625 143.128906 191.101562 141.042969 189.011719 C 138.953125 186.921875 137.660156 184.035156 137.660156 180.847656 C 137.660156 177.664062 138.953125 174.777344 141.042969 172.6875 C 143.128906 170.597656 146.015625 169.308594 149.203125 169.308594 C 152.390625 169.308594 155.277344 170.597656 157.363281 172.6875 M 160.53125 180.847656 C 160.53125 177.722656 159.261719 174.890625 157.214844 172.839844 C 155.164062 170.789062 152.332031 169.523438 149.203125 169.523438 C 146.074219 169.523438 143.242188 170.789062 141.195312 172.839844 C 139.144531 174.890625 137.875 177.722656 137.875 180.847656 C 137.875 183.976562 139.144531 186.808594 141.195312 188.859375 C 143.242188 190.910156 146.074219 192.175781 149.203125 192.175781 C 152.332031 192.175781 155.164062 190.910156 157.214844 188.859375 C 159.261719 186.808594 160.53125 183.976562 160.53125 180.847656 Z M 160.53125 180.847656 "/></g><path style=" stroke:none;fill-rule:nonzero;fill:#efbbb7;fill-opacity:1;" d="M 140.28125 171.84375 C 140.300781 172.050781 140.355469 172.257812 140.4375 172.421875 C 140.589844 172.117188 140.910156 171.859375 141.238281 171.597656 C 141.789062 171.15625 142.363281 170.691406 142.160156 169.949219 C 142 170.242188 141.675781 170.371094 141.332031 170.503906 C 140.957031 170.652344 140.558594 170.808594 140.371094 171.203125 C 140.285156 171.382812 140.261719 171.613281 140.28125 171.84375 M 140.402344 172.566406 C 140.28125 172.375 140.203125 172.113281 140.179688 171.851562 C 140.15625 171.605469 140.1875 171.355469 140.277344 171.160156 C 140.484375 170.730469 140.898438 170.566406 141.292969 170.410156 C 141.660156 170.265625 142.007812 170.128906 142.117188 169.789062 C 142.125 169.761719 142.15625 169.75 142.183594 169.757812 C 142.199219 169.761719 142.207031 169.773438 142.214844 169.789062 C 142.550781 170.675781 141.910156 171.1875 141.304688 171.675781 C 140.953125 171.957031 140.609375 172.230469 140.492188 172.558594 C 140.484375 172.585938 140.453125 172.597656 140.429688 172.589844 C 140.417969 172.585938 140.40625 172.578125 140.402344 172.566406 Z M 143.195312 169.609375 C 143.480469 170.558594 142.613281 171.0625 142.566406 171.089844 L 142.5625 171.089844 C 142.539062 171.101562 142.507812 171.09375 142.492188 171.070312 C 142.367188 170.847656 142.355469 170.648438 142.402344 170.476562 C 142.46875 170.238281 142.648438 170.058594 142.796875 169.960938 C 143.023438 169.816406 143.09375 169.617188 143.097656 169.609375 C 143.101562 169.59375 143.117188 169.578125 143.132812 169.574219 C 143.160156 169.566406 143.1875 169.582031 143.195312 169.609375 Z M 142.558594 170.972656 C 142.71875 170.867188 143.257812 170.460938 143.128906 169.769531 C 143.078125 169.851562 142.988281 169.960938 142.851562 170.046875 C 142.71875 170.136719 142.558594 170.292969 142.5 170.503906 C 142.464844 170.636719 142.472656 170.796875 142.558594 170.972656 Z M 143.949219 172.484375 C 142.773438 173.207031 141.792969 172.179688 141.789062 172.175781 C 141.769531 172.15625 141.769531 172.121094 141.789062 172.101562 C 142.035156 171.863281 142.292969 171.773438 142.53125 171.777344 C 142.863281 171.78125 143.160156 171.949219 143.339844 172.113281 C 143.613281 172.359375 143.910156 172.390625 143.925781 172.390625 C 143.941406 172.390625 143.960938 172.398438 143.96875 172.414062 C 143.984375 172.441406 143.976562 172.472656 143.949219 172.484375 Z M 141.902344 172.140625 C 142.078125 172.304688 142.851562 172.941406 143.777344 172.464844 C 143.648438 172.429688 143.453125 172.355469 143.269531 172.1875 C 143.105469 172.039062 142.832031 171.882812 142.53125 171.878906 C 142.328125 171.878906 142.109375 171.949219 141.902344 172.140625 Z M 140.273438 173.558594 C 140.191406 173.671875 140.125 173.796875 140.085938 173.914062 C 140.316406 173.835938 140.601562 173.851562 140.894531 173.871094 C 141.390625 173.898438 141.90625 173.929688 142.160156 173.472656 C 141.9375 173.535156 141.710938 173.449219 141.472656 173.359375 C 141.199219 173.253906 140.914062 173.148438 140.625 173.265625 C 140.496094 173.320312 140.375 173.425781 140.277344 173.558594 Z M 139.960938 173.996094 C 139.992188 173.832031 140.078125 173.652344 140.191406 173.496094 L 140.195312 173.496094 C 140.304688 173.351562 140.441406 173.230469 140.585938 173.171875 C 140.914062 173.035156 141.21875 173.152344 141.507812 173.261719 C 141.769531 173.363281 142.019531 173.457031 142.238281 173.332031 C 142.261719 173.316406 142.292969 173.324219 142.308594 173.351562 C 142.316406 173.363281 142.316406 173.382812 142.3125 173.394531 C 142.058594 174.042969 141.457031 174.007812 140.890625 173.972656 C 140.566406 173.953125 140.253906 173.933594 140.035156 174.050781 C 140.011719 174.0625 139.980469 174.054688 139.964844 174.027344 C 139.960938 174.019531 139.957031 174.007812 139.960938 173.996094 Z M 140.851562 175.773438 C 140.828125 175.601562 140.84375 175.417969 140.890625 175.273438 C 140.894531 175.261719 140.902344 175.25 140.914062 175.242188 C 140.9375 175.226562 140.96875 175.234375 140.984375 175.257812 C 141.105469 175.449219 141.367188 175.578125 141.632812 175.707031 C 142.105469 175.9375 142.605469 176.183594 142.511719 176.820312 C 142.511719 176.835938 142.503906 176.851562 142.488281 176.859375 C 142.464844 176.875 142.433594 176.867188 142.417969 176.839844 C 142.300781 176.644531 142.058594 176.605469 141.804688 176.566406 C 141.519531 176.523438 141.222656 176.476562 141.019531 176.21875 C 140.929688 176.101562 140.875 175.941406 140.851562 175.773438 Z M 140.964844 175.398438 C 140.941406 175.511719 140.9375 175.636719 140.953125 175.761719 C 140.972656 175.910156 141.023438 176.054688 141.101562 176.15625 C 141.277344 176.378906 141.554688 176.425781 141.820312 176.464844 C 142.050781 176.5 142.269531 176.535156 142.421875 176.679688 C 142.417969 176.207031 141.996094 176 141.589844 175.800781 C 141.347656 175.683594 141.113281 175.566406 140.964844 175.398438 Z M 142.289062 175.171875 C 142.3125 175.25 142.34375 175.320312 142.386719 175.378906 C 142.4375 175.234375 142.554688 175.09375 142.671875 174.953125 C 142.867188 174.710938 143.074219 174.460938 142.964844 174.171875 C 142.902344 174.296875 142.773438 174.378906 142.640625 174.46875 C 142.484375 174.570312 142.316406 174.683594 142.269531 174.875 C 142.246094 174.964844 142.257812 175.070312 142.289062 175.171875 Z M 143.917969 177.417969 C 143.886719 176.378906 142.953125 176.007812 142.726562 175.933594 C 142.660156 176.210938 142.703125 176.433594 142.804688 176.613281 C 142.949219 176.875 143.21875 177.039062 143.429688 177.109375 C 143.664062 177.191406 143.824219 177.324219 143.917969 177.417969 Z M 142.703125 175.820312 C 142.738281 175.828125 144.082031 176.199219 144.019531 177.5625 C 144.019531 177.589844 143.992188 177.613281 143.964844 177.613281 C 143.949219 177.609375 143.933594 177.601562 143.925781 177.589844 C 143.925781 177.589844 143.757812 177.332031 143.398438 177.207031 C 143.167969 177.128906 142.875 176.949219 142.714844 176.664062 C 142.597656 176.453125 142.546875 176.183594 142.640625 175.855469 C 142.648438 175.828125 142.675781 175.8125 142.703125 175.820312 Z M 141.367188 185.734375 C 141.148438 185.847656 140.949219 186.003906 140.808594 186.171875 C 141.207031 186.191406 141.625 186.417969 142.058594 186.648438 C 142.777344 187.039062 143.535156 187.449219 144.238281 186.875 C 143.851562 186.84375 143.566406 186.554688 143.265625 186.246094 C 142.9375 185.914062 142.59375 185.5625 142.085938 185.539062 C 141.859375 185.53125 141.601562 185.605469 141.367188 185.734375 Z M 140.664062 186.191406 C 140.816406 185.980469 141.054688 185.78125 141.316406 185.640625 C 141.570312 185.507812 141.84375 185.425781 142.089844 185.4375 C 142.640625 185.460938 143 185.828125 143.339844 186.175781 C 143.65625 186.5 143.957031 186.808594 144.371094 186.773438 C 144.398438 186.769531 144.425781 186.789062 144.425781 186.820312 C 144.429688 186.835938 144.421875 186.851562 144.410156 186.863281 C 143.625 187.609375 142.796875 187.164062 142.007812 186.738281 C 141.550781 186.492188 141.105469 186.253906 140.707031 186.277344 C 140.679688 186.277344 140.65625 186.257812 140.652344 186.226562 C 140.652344 186.214844 140.65625 186.203125 140.664062 186.191406 Z M 141.511719 188.023438 C 141.28125 188.105469 141.058594 188.230469 140.894531 188.375 C 141.285156 188.449219 141.667969 188.738281 142.058594 189.03125 C 142.714844 189.523438 143.402344 190.042969 144.183594 189.582031 C 143.804688 189.492188 143.5625 189.164062 143.3125 188.816406 C 143.039062 188.4375 142.75 188.035156 142.253906 187.941406 C 142.03125 187.894531 141.765625 187.933594 141.511719 188.023438 Z M 140.746094 188.375 C 140.925781 188.1875 141.195312 188.023438 141.476562 187.925781 C 141.746094 187.832031 142.03125 187.792969 142.273438 187.839844 C 142.8125 187.945312 143.113281 188.359375 143.394531 188.753906 C 143.664062 189.125 143.914062 189.472656 144.328125 189.5 C 144.355469 189.5 144.378906 189.527344 144.375 189.554688 C 144.375 189.570312 144.367188 189.585938 144.351562 189.59375 C 143.464844 190.21875 142.710938 189.652344 141.996094 189.113281 C 141.582031 188.800781 141.179688 188.5 140.78125 188.460938 C 140.75 188.457031 140.730469 188.433594 140.734375 188.40625 C 140.734375 188.394531 140.738281 188.382812 140.746094 188.375 Z M 146.496094 192.296875 C 144.628906 193.078125 143.425781 191.40625 143.378906 191.339844 C 143.359375 191.316406 143.367188 191.285156 143.386719 191.269531 C 143.800781 190.96875 144.199219 190.902344 144.550781 190.957031 C 145.039062 191.039062 145.433594 191.359375 145.660156 191.636719 C 146.015625 192.074219 146.453125 192.191406 146.484375 192.199219 C 146.503906 192.203125 146.515625 192.214844 146.523438 192.230469 C 146.535156 192.257812 146.523438 192.285156 146.496094 192.296875 Z M 143.492188 191.320312 C 143.679688 191.570312 144.742188 192.824219 146.324219 192.253906 C 146.148438 192.183594 145.84375 192.023438 145.582031 191.703125 C 145.367188 191.4375 144.992188 191.136719 144.535156 191.058594 C 144.21875 191.007812 143.863281 191.066406 143.492188 191.320312 Z M 144.914062 190.484375 C 144.035156 189.730469 143.03125 190.238281 142.8125 190.363281 C 142.988281 190.625 143.207031 190.753906 143.425781 190.804688 C 143.75 190.875 144.078125 190.773438 144.292969 190.65625 C 144.535156 190.519531 144.769531 190.488281 144.914062 190.484375 Z M 142.714844 190.304688 C 142.75 190.28125 144.027344 189.464844 145.085938 190.507812 C 145.105469 190.527344 145.105469 190.558594 145.085938 190.578125 C 145.074219 190.589844 145.058594 190.597656 145.042969 190.59375 C 145.042969 190.59375 144.707031 190.542969 144.34375 190.746094 C 144.113281 190.875 143.757812 190.984375 143.402344 190.902344 C 143.148438 190.847656 142.894531 190.691406 142.695312 190.375 C 142.683594 190.351562 142.6875 190.320312 142.714844 190.304688 Z M 138.027344 180.085938 C 137.917969 180.960938 137.746094 183.378906 138.898438 185.238281 C 138.773438 184.417969 138.628906 183.609375 138.484375 182.796875 C 138.328125 181.90625 138.171875 181.015625 138.027344 180.085938 Z M 139.769531 173.476562 L 139.75 173.496094 L 139.757812 173.5 Z M 143.292969 170.808594 C 143.335938 170.792969 143.359375 170.785156 143.359375 170.785156 C 143.386719 170.773438 143.417969 170.789062 143.425781 170.8125 C 143.4375 170.839844 143.421875 170.871094 143.394531 170.878906 C 143.394531 170.882812 143.355469 170.894531 143.28125 170.925781 C 143.28125 170.9375 143.28125 170.953125 143.28125 170.964844 C 143.410156 170.96875 143.804688 170.957031 144.207031 170.644531 C 144.5 170.414062 144.585938 170.144531 144.671875 169.859375 C 144.722656 169.6875 144.777344 169.511719 144.878906 169.332031 C 144.460938 169.417969 144.050781 169.628906 143.75 169.929688 C 143.507812 170.167969 143.339844 170.46875 143.292969 170.808594 Z M 139.664062 173.441406 C 139.734375 173.359375 139.804688 173.277344 139.875 173.199219 C 140.015625 172.753906 140.121094 171.964844 139.460938 171.3125 C 139.46875 171.460938 139.457031 171.707031 139.332031 171.976562 C 139.226562 172.207031 139.148438 172.5625 139.246094 172.894531 C 139.308594 173.09375 139.4375 173.285156 139.664062 173.441406 Z M 139.410156 187.148438 C 139.308594 186.890625 139.21875 186.628906 139.140625 186.355469 C 138.882812 186.488281 138.722656 186.675781 138.625 186.875 C 138.453125 187.226562 138.484375 187.632812 138.5625 187.914062 C 138.65625 188.242188 138.621094 188.523438 138.585938 188.683594 C 139.207031 188.238281 139.390625 187.640625 139.410156 187.148438 Z M 140.6875 189.238281 C 140.472656 188.976562 140.277344 188.714844 140.101562 188.453125 C 140.074219 188.410156 140.046875 188.367188 140.019531 188.324219 C 139.894531 188.488281 139.824219 188.664062 139.796875 188.835938 C 139.734375 189.222656 139.878906 189.601562 140.035156 189.847656 C 140.21875 190.132812 140.265625 190.414062 140.277344 190.578125 C 140.632812 190.117188 140.722656 189.648438 140.6875 189.238281 Z M 141.882812 190.476562 L 141.875 190.472656 C 141.523438 190.59375 141.304688 190.804688 141.179688 191.042969 C 141 191.386719 141.015625 191.796875 141.085938 192.074219 C 141.167969 192.40625 141.125 192.6875 141.082031 192.847656 C 142.238281 192.078125 141.957031 190.761719 141.882812 190.476562 Z M 140.089844 188.242188 C 140.121094 188.292969 140.152344 188.34375 140.1875 188.394531 C 140.332031 188.613281 140.492188 188.832031 140.667969 189.046875 C 140.585938 188.566406 140.359375 188.195312 140.277344 188.074219 C 140.207031 188.128906 140.144531 188.183594 140.089844 188.242188 Z M 139.234375 186.3125 C 139.285156 186.496094 139.34375 186.671875 139.40625 186.847656 C 139.386719 186.582031 139.332031 186.371094 139.304688 186.28125 C 139.28125 186.292969 139.257812 186.300781 139.234375 186.3125 Z M 142.703125 175.660156 C 142.722656 175.679688 142.726562 175.710938 142.707031 175.730469 C 142.6875 175.753906 142.652344 175.753906 142.632812 175.734375 C 142.546875 175.65625 142.441406 175.578125 142.320312 175.503906 C 141.914062 175.261719 141.328125 175.066406 140.742188 175.042969 C 140.160156 175.023438 139.574219 175.171875 139.164062 175.613281 C 139.082031 175.703125 139.007812 175.800781 138.941406 175.910156 C 138.097656 177.320312 138.082031 179.640625 138.082031 179.734375 C 138.234375 180.78125 138.410156 181.78125 138.585938 182.78125 C 138.726562 183.582031 138.871094 184.382812 139 185.222656 C 139.011719 185.300781 139.027344 185.375 139.039062 185.449219 C 139.605469 186.265625 140.453125 186.953125 141.710938 187.3125 C 141.738281 187.320312 141.753906 187.351562 141.746094 187.378906 C 141.738281 187.40625 141.707031 187.421875 141.679688 187.414062 C 140.492188 187.070312 139.660156 186.445312 139.085938 185.6875 C 139.121094 185.867188 139.164062 186.039062 139.207031 186.210938 C 139.242188 186.195312 139.28125 186.179688 139.320312 186.167969 C 139.347656 186.15625 139.375 186.171875 139.382812 186.199219 C 139.386719 186.203125 139.535156 186.605469 139.515625 187.128906 C 139.660156 187.480469 139.832031 187.820312 140.035156 188.152344 C 140.097656 188.085938 140.171875 188.019531 140.257812 187.957031 C 140.28125 187.941406 140.3125 187.945312 140.332031 187.96875 C 140.332031 187.972656 140.722656 188.492188 140.789062 189.195312 C 141.109375 189.578125 141.480469 189.960938 141.902344 190.355469 C 141.925781 190.347656 141.953125 190.363281 141.960938 190.390625 C 141.960938 190.390625 141.964844 190.402344 141.972656 190.421875 C 142.261719 190.6875 142.574219 190.960938 142.914062 191.246094 C 142.9375 191.261719 142.941406 191.296875 142.921875 191.316406 C 142.902344 191.339844 142.871094 191.34375 142.851562 191.324219 C 142.550781 191.074219 142.273438 190.835938 142.015625 190.601562 C 142.113281 191.085938 142.214844 192.308594 141.015625 193.011719 C 140.992188 193.023438 140.960938 193.015625 140.945312 192.992188 C 140.9375 192.976562 140.9375 192.960938 140.941406 192.945312 C 140.945312 192.945312 141.105469 192.582031 140.984375 192.101562 C 140.910156 191.800781 140.894531 191.367188 141.089844 190.992188 C 141.21875 190.746094 141.4375 190.527344 141.792969 190.394531 C 141.421875 190.046875 141.089844 189.707031 140.796875 189.367188 C 140.804688 189.796875 140.675781 190.285156 140.265625 190.753906 C 140.25 190.777344 140.214844 190.777344 140.195312 190.761719 C 140.179688 190.75 140.175781 190.734375 140.175781 190.714844 C 140.175781 190.714844 140.214844 190.320312 139.945312 189.902344 C 139.78125 189.640625 139.628906 189.234375 139.695312 188.820312 C 139.726562 188.621094 139.808594 188.417969 139.960938 188.234375 C 139.785156 187.945312 139.628906 187.652344 139.496094 187.347656 C 139.433594 187.855469 139.191406 188.429688 138.523438 188.847656 C 138.5 188.863281 138.46875 188.855469 138.453125 188.832031 C 138.445312 188.816406 138.441406 188.800781 138.449219 188.785156 C 138.460938 188.753906 138.589844 188.394531 138.460938 187.941406 C 138.378906 187.644531 138.347656 187.210938 138.53125 186.832031 C 138.640625 186.605469 138.824219 186.398438 139.113281 186.253906 C 139.046875 186.007812 138.992188 185.757812 138.941406 185.492188 C 137.363281 183.199219 137.945312 179.914062 137.976562 179.738281 C 137.71875 177.976562 137.972656 176.519531 138.488281 175.332031 C 138.152344 175.132812 137.972656 174.871094 137.890625 174.601562 C 137.765625 174.199219 137.863281 173.773438 137.992188 173.496094 C 138.199219 173.042969 138.105469 172.65625 138.105469 172.65625 C 138.105469 172.640625 138.105469 172.621094 138.117188 172.609375 C 138.136719 172.589844 138.167969 172.585938 138.191406 172.605469 C 138.898438 173.222656 138.980469 173.964844 138.898438 174.519531 C 139.113281 174.15625 139.347656 173.824219 139.597656 173.519531 C 139.351562 173.351562 139.214844 173.140625 139.148438 172.921875 C 139.039062 172.5625 139.125 172.183594 139.238281 171.933594 C 139.421875 171.535156 139.34375 171.191406 139.34375 171.191406 C 139.339844 171.175781 139.34375 171.15625 139.355469 171.144531 C 139.375 171.121094 139.40625 171.121094 139.425781 171.140625 C 140.144531 171.761719 140.140625 172.527344 140.023438 173.039062 C 141.273438 171.730469 142.695312 171.058594 143.183594 170.855469 C 143.21875 170.464844 143.40625 170.125 143.675781 169.855469 C 144.019531 169.511719 144.496094 169.285156 144.972656 169.207031 C 144.984375 169.207031 144.996094 169.210938 145.007812 169.214844 C 145.03125 169.230469 145.039062 169.261719 145.023438 169.289062 C 144.890625 169.488281 144.828125 169.695312 144.769531 169.886719 C 144.675781 170.191406 144.589844 170.476562 144.269531 170.722656 C 143.742188 171.136719 143.222656 171.0625 143.21875 171.0625 C 143.195312 171.058594 143.175781 171.039062 143.175781 171.011719 C 143.175781 170.996094 143.175781 170.984375 143.175781 170.96875 C 142.636719 171.199219 141.195312 171.90625 139.964844 173.253906 C 139.898438 173.464844 139.824219 173.59375 139.824219 173.597656 C 139.8125 173.621094 139.78125 173.628906 139.753906 173.617188 C 139.730469 173.605469 139.707031 173.589844 139.683594 173.578125 C 139.371094 173.960938 139.078125 174.390625 138.824219 174.867188 C 138.742188 175.164062 138.636719 175.355469 138.636719 175.355469 C 138.625 175.375 138.601562 175.386719 138.578125 175.382812 C 138.136719 176.40625 137.890625 177.632812 138.007812 179.085938 C 138.070312 178.265625 138.261719 176.84375 138.855469 175.859375 C 138.925781 175.742188 139.003906 175.636719 139.089844 175.542969 C 139.523438 175.074219 140.136719 174.917969 140.746094 174.941406 C 141.292969 174.960938 141.835938 175.128906 142.246094 175.34375 C 142.222656 175.300781 142.207031 175.253906 142.191406 175.203125 C 142.152344 175.085938 142.144531 174.960938 142.167969 174.851562 C 142.222656 174.617188 142.410156 174.496094 142.585938 174.382812 C 142.738281 174.28125 142.882812 174.183594 142.898438 174.027344 C 142.902344 174 142.929688 173.976562 142.957031 173.980469 C 142.972656 173.984375 142.984375 173.992188 142.992188 174.003906 C 143.25 174.40625 142.996094 174.71875 142.75 175.019531 C 142.621094 175.175781 142.496094 175.324219 142.464844 175.476562 C 142.554688 175.535156 142.636719 175.597656 142.703125 175.660156 Z M 138.730469 174.824219 C 138.871094 174.3125 138.9375 173.476562 138.226562 172.777344 C 138.238281 172.941406 138.226562 173.226562 138.085938 173.539062 C 137.964844 173.800781 137.875 174.195312 137.988281 174.570312 C 138.0625 174.816406 138.226562 175.054688 138.53125 175.238281 C 138.59375 175.097656 138.660156 174.960938 138.730469 174.824219 Z M 138.730469 174.824219 "/><path style=" stroke:none;fill-rule:evenodd;fill:#ff6a94;fill-opacity:1;" d="M 140.53125 172.238281 C 140.324219 171.867188 140.269531 171.253906 140.46875 170.875 C 140.894531 170.074219 142.097656 170.300781 142.371094 169.582031 C 142.828125 170.964844 140.894531 171.347656 140.53125 172.238281 M 139.820312 173.238281 C 139.820312 173.238281 140.648438 171.886719 139.539062 170.832031 C 139.539062 170.832031 139.609375 171.195312 139.398438 171.601562 C 139.191406 172.007812 139.050781 172.789062 139.820312 173.238281 Z M 142.6875 170.832031 C 142.6875 170.832031 143.59375 170.386719 143.359375 169.441406 C 143.359375 169.441406 143.269531 169.660156 143.019531 169.808594 C 142.769531 169.957031 142.425781 170.328125 142.6875 170.832031 Z M 143.378906 170.832031 C 143.378906 170.832031 143.875 170.921875 144.402344 170.546875 C 144.933594 170.171875 144.847656 169.660156 145.207031 169.15625 C 144.320312 169.257812 143.410156 169.894531 143.378906 170.832031 Z M 141.929688 171.898438 C 141.929688 171.898438 142.839844 172.941406 144.011719 172.292969 C 144.011719 172.292969 143.6875 172.253906 143.40625 171.972656 C 143.121094 171.691406 142.507812 171.371094 141.929688 171.898438 Z M 140.035156 173.679688 C 140.101562 173.382812 140.375 173.027344 140.664062 172.921875 C 141.28125 172.699219 141.816406 173.40625 142.3125 173.152344 C 141.882812 174.117188 140.660156 173.382812 140.035156 173.679688 Z M 140.90625 175.003906 C 140.804688 175.265625 140.824219 175.675781 140.988281 175.910156 C 141.339844 176.402344 142.117188 176.144531 142.359375 176.597656 C 142.542969 175.640625 141.226562 175.558594 140.90625 175.003906 Z M 142.367188 175.273438 C 142.230469 175.121094 142.144531 174.835938 142.203125 174.636719 C 142.324219 174.21875 142.914062 174.203125 142.96875 173.835938 C 143.324219 174.445312 142.449219 174.820312 142.367188 175.273438 Z M 142.628906 175.660156 C 142.628906 175.660156 143.953125 176.074219 143.832031 177.40625 C 143.832031 177.40625 143.667969 177.128906 143.296875 176.980469 C 142.925781 176.832031 142.382812 176.402344 142.628906 175.660156 Z M 140.195312 185.921875 C 140.496094 185.535156 141.121094 185.203125 141.609375 185.246094 C 142.648438 185.335938 142.949219 186.714844 143.835938 186.679688 C 142.574219 187.789062 141.300781 185.90625 140.195312 185.921875 Z M 140.179688 188.105469 C 140.535156 187.769531 141.203125 187.535156 141.679688 187.652344 C 142.695312 187.894531 142.785156 189.304688 143.667969 189.402344 C 142.253906 190.308594 141.273438 188.257812 140.179688 188.105469 Z M 138.828125 185.851562 C 138.828125 185.851562 139.367188 187.550781 137.875 188.402344 C 137.875 188.402344 138.050781 188.023438 137.929688 187.523438 C 137.8125 187.027344 137.867188 186.140625 138.828125 185.851562 Z M 139.703125 187.675781 C 139.703125 187.675781 140.707031 189.144531 139.523438 190.390625 C 139.523438 190.390625 139.578125 189.980469 139.324219 189.535156 C 139.066406 189.089844 138.863281 188.226562 139.703125 187.675781 Z M 141.222656 190.148438 C 141.222656 190.148438 141.707031 191.863281 140.1875 192.667969 C 140.1875 192.667969 140.371094 192.292969 140.269531 191.792969 C 140.167969 191.289062 140.25 190.40625 141.222656 190.148438 Z M 142.683594 191.117188 C 142.683594 191.117188 143.800781 192.886719 145.699219 192.191406 C 145.699219 192.191406 145.226562 192.058594 144.867188 191.574219 C 144.507812 191.089844 143.671875 190.46875 142.683594 191.117188 Z M 142.050781 190.128906 C 142.050781 190.128906 143.351562 189.351562 144.347656 190.425781 C 144.347656 190.425781 144 190.355469 143.609375 190.550781 C 143.21875 190.746094 142.472656 190.871094 142.050781 190.128906 Z M 138.558594 174.945312 C 138.558594 174.945312 139.488281 173.425781 138.242188 172.242188 C 138.242188 172.242188 138.320312 172.652344 138.082031 173.109375 C 137.847656 173.5625 137.691406 174.4375 138.558594 174.945312 Z M 138.558594 174.945312 "/><path style=" stroke:none;fill-rule:evenodd;fill:#ff6a94;fill-opacity:1;" d="M 137.445312 182.972656 C 137.515625 182.957031 137.578125 182.933594 137.636719 182.90625 C 137.617188 182.9375 137.597656 182.96875 137.582031 183 C 137.269531 183.59375 138.097656 183.984375 138.292969 183.324219 C 138.3125 183.257812 138.320312 183.1875 138.324219 183.125 C 138.34375 183.160156 138.359375 183.191406 138.378906 183.222656 C 138.738281 183.789062 139.492188 183.265625 139.019531 182.769531 C 138.96875 182.714844 138.914062 182.671875 138.863281 182.636719 C 138.898438 182.640625 138.9375 182.640625 138.972656 182.640625 C 139.644531 182.613281 139.566406 181.699219 138.898438 181.859375 C 138.828125 181.878906 138.765625 181.902344 138.707031 181.929688 C 138.730469 181.898438 138.75 181.867188 138.765625 181.835938 C 139.078125 181.242188 138.25 180.851562 138.054688 181.507812 C 138.035156 181.578125 138.023438 181.644531 138.019531 181.710938 C 138.003906 181.675781 137.984375 181.644531 137.964844 181.613281 C 137.605469 181.046875 136.855469 181.570312 137.328125 182.066406 C 137.378906 182.117188 137.429688 182.160156 137.484375 182.195312 C 137.445312 182.195312 137.410156 182.195312 137.371094 182.195312 C 136.703125 182.222656 136.777344 183.136719 137.445312 182.972656 "/><path style=" stroke:none;fill-rule:evenodd;fill:#efbbb7;fill-opacity:1;" d="M 138.492188 182.417969 C 138.492188 182.222656 138.347656 182.066406 138.171875 182.066406 C 137.996094 182.066406 137.855469 182.222656 137.855469 182.417969 C 137.855469 182.613281 137.996094 182.769531 138.171875 182.769531 C 138.347656 182.769531 138.492188 182.613281 138.492188 182.417969 "/><path style=" stroke:none;fill-rule:evenodd;fill:#ff6a94;fill-opacity:1;" d="M 134.980469 180.664062 C 135.203125 180.609375 135.402344 180.53125 135.582031 180.441406 C 135.515625 180.542969 135.457031 180.640625 135.40625 180.742188 C 134.425781 182.613281 137.03125 183.839844 137.640625 181.769531 C 137.707031 181.550781 137.738281 181.339844 137.753906 181.136719 C 137.804688 181.242188 137.863281 181.34375 137.925781 181.441406 C 139.050781 183.226562 141.417969 181.582031 139.929688 180.015625 C 139.773438 179.851562 139.605469 179.71875 139.4375 179.605469 C 139.558594 179.613281 139.675781 179.613281 139.789062 179.609375 C 141.898438 179.523438 141.65625 176.652344 139.558594 177.160156 C 139.335938 177.214844 139.136719 177.289062 138.957031 177.378906 C 139.023438 177.28125 139.082031 177.179688 139.136719 177.078125 C 140.113281 175.210938 137.507812 173.984375 136.898438 176.054688 C 136.832031 176.273438 136.800781 176.484375 136.789062 176.683594 C 136.734375 176.578125 136.675781 176.476562 136.617188 176.378906 C 135.488281 174.597656 133.121094 176.242188 134.609375 177.804688 C 134.765625 177.96875 134.933594 178.105469 135.101562 178.214844 C 134.984375 178.210938 134.867188 178.207031 134.75 178.210938 C 132.640625 178.296875 132.882812 181.167969 134.980469 180.664062 "/><path style=" stroke:none;fill-rule:evenodd;fill:#efbbb7;fill-opacity:1;" d="M 138.269531 178.910156 C 138.269531 178.300781 137.824219 177.808594 137.269531 177.808594 C 136.714844 177.808594 136.269531 178.300781 136.269531 178.910156 C 136.269531 179.519531 136.714844 180.015625 137.269531 180.015625 C 137.824219 180.015625 138.269531 179.519531 138.269531 178.910156 "/><path style=" stroke:none;fill-rule:evenodd;fill:#efbbb7;fill-opacity:1;" d="M 140.847656 178.410156 C 141.398438 178.375 141.605469 178.484375 141.644531 178.585938 C 141.683594 178.6875 141.46875 178.789062 141.371094 178.804688 C 141.273438 178.820312 141.253906 178.921875 141.195312 178.949219 C 141.140625 178.976562 141.125 179.121094 140.988281 179.164062 C 140.851562 179.210938 140.847656 179.382812 140.707031 179.328125 C 140.570312 179.277344 140.328125 179.144531 140.328125 179.144531 C 140.328125 179.144531 140.632812 179.519531 140.519531 179.601562 C 140.40625 179.683594 140.398438 179.832031 140.308594 179.820312 C 140.21875 179.804688 140.246094 179.960938 140.167969 179.945312 C 140.089844 179.933594 140.015625 179.925781 140.058594 180.050781 C 140.101562 180.179688 139.882812 180.226562 139.984375 179.941406 C 139.984375 179.941406 139.964844 179.886719 139.867188 179.867188 C 139.769531 179.851562 139.707031 179.683594 139.761719 179.554688 C 139.816406 179.425781 139.878906 179.304688 139.867188 179.125 C 139.859375 179.054688 139.859375 178.992188 139.867188 178.941406 C 139.828125 179 139.785156 179.042969 139.75 179.070312 C 139.753906 179.144531 139.71875 179.261719 139.652344 179.378906 C 139.550781 179.550781 139.421875 179.660156 139.359375 179.625 C 139.296875 179.589844 139.328125 179.421875 139.425781 179.25 C 139.496094 179.128906 139.578125 179.039062 139.644531 179.007812 C 139.652344 178.960938 139.671875 178.898438 139.703125 178.832031 C 139.652344 178.867188 139.585938 178.898438 139.496094 178.929688 C 139.328125 178.984375 139.234375 179.089844 139.136719 179.1875 C 139.039062 179.289062 138.859375 179.292969 138.808594 179.210938 C 138.753906 179.125 138.695312 179.128906 138.695312 179.128906 C 138.46875 179.332031 138.429688 179.109375 138.5625 179.101562 C 138.699219 179.09375 138.664062 179.027344 138.621094 178.960938 C 138.578125 178.894531 138.734375 178.859375 138.6875 178.78125 C 138.640625 178.707031 138.773438 178.640625 138.804688 178.503906 C 138.839844 178.367188 139.300781 178.507812 139.300781 178.507812 C 139.300781 178.507812 139.085938 178.335938 138.984375 178.226562 C 138.886719 178.117188 139.042969 178.046875 139.03125 177.902344 C 139.019531 177.761719 139.148438 177.691406 139.152344 177.628906 C 139.15625 177.566406 139.242188 177.507812 139.21875 177.414062 C 139.195312 177.316406 139.207031 177.082031 139.316406 177.078125 C 139.425781 177.074219 139.605469 177.226562 139.785156 177.75 C 139.863281 177.988281 139.875 178.332031 139.847656 178.546875 C 139.84375 178.570312 139.839844 178.59375 139.835938 178.617188 C 139.867188 178.574219 139.898438 178.542969 139.925781 178.523438 C 139.914062 178.492188 139.910156 178.460938 139.925781 178.433594 C 139.953125 178.386719 140.015625 178.375 140.066406 178.402344 C 140.113281 178.429688 140.132812 178.492188 140.109375 178.535156 C 140.089844 178.5625 140.0625 178.578125 140.03125 178.582031 C 140.027344 178.617188 140.011719 178.664062 139.992188 178.714844 C 140.019531 178.695312 140.046875 178.675781 140.082031 178.65625 C 140.273438 178.546875 140.597656 178.425781 140.847656 178.410156 "/><path style=" stroke:none;fill-rule:evenodd;fill:#ff6a94;fill-opacity:1;" d="M 137.566406 185.855469 C 137.671875 185.828125 137.769531 185.792969 137.859375 185.75 C 137.828125 185.796875 137.796875 185.847656 137.769531 185.894531 C 137.296875 186.800781 138.558594 187.394531 138.855469 186.390625 C 138.886719 186.285156 138.902344 186.183594 138.910156 186.085938 C 138.933594 186.136719 138.960938 186.1875 138.992188 186.234375 C 139.539062 187.097656 140.683594 186.300781 139.964844 185.542969 C 139.886719 185.464844 139.808594 185.398438 139.726562 185.34375 C 139.78125 185.347656 139.839844 185.347656 139.894531 185.347656 C 140.917969 185.304688 140.800781 183.914062 139.785156 184.160156 C 139.675781 184.183594 139.578125 184.222656 139.492188 184.265625 C 139.523438 184.21875 139.550781 184.167969 139.578125 184.121094 C 140.054688 183.214844 138.789062 182.621094 138.496094 183.625 C 138.464844 183.730469 138.445312 183.832031 138.441406 183.929688 C 138.414062 183.878906 138.386719 183.828125 138.359375 183.78125 C 137.8125 182.917969 136.664062 183.714844 137.386719 184.472656 C 137.460938 184.550781 137.542969 184.617188 137.625 184.671875 C 137.566406 184.667969 137.511719 184.667969 137.453125 184.667969 C 136.433594 184.710938 136.550781 186.101562 137.566406 185.855469 "/><path style=" stroke:none;fill-rule:evenodd;fill:#efbbb7;fill-opacity:1;" d="M 139.160156 185.007812 C 139.160156 184.710938 138.941406 184.472656 138.675781 184.472656 C 138.40625 184.472656 138.191406 184.710938 138.191406 185.007812 C 138.191406 185.300781 138.40625 185.542969 138.675781 185.542969 C 138.941406 185.542969 139.160156 185.300781 139.160156 185.007812 "/><path style=" stroke:none;fill-rule:evenodd;fill:#ff6a94;fill-opacity:1;" d="M 140.316406 175.566406 C 140.378906 175.550781 140.4375 175.527344 140.488281 175.5 C 140.46875 175.53125 140.453125 175.558594 140.4375 175.589844 C 140.15625 176.125 140.90625 176.476562 141.082031 175.882812 C 141.097656 175.820312 141.109375 175.757812 141.113281 175.703125 C 141.128906 175.730469 141.144531 175.761719 141.160156 175.789062 C 141.488281 176.300781 142.167969 175.828125 141.738281 175.378906 C 141.695312 175.332031 141.644531 175.292969 141.597656 175.261719 C 141.632812 175.261719 141.664062 175.265625 141.699219 175.261719 C 142.304688 175.238281 142.234375 174.410156 141.632812 174.558594 C 141.566406 174.574219 141.511719 174.59375 141.457031 174.621094 C 141.476562 174.59375 141.496094 174.5625 141.511719 174.535156 C 141.792969 173.996094 141.042969 173.644531 140.867188 174.238281 C 140.847656 174.300781 140.839844 174.363281 140.835938 174.421875 C 140.820312 174.390625 140.804688 174.363281 140.785156 174.332031 C 140.460938 173.820312 139.78125 174.292969 140.207031 174.742188 C 140.253906 174.789062 140.300781 174.828125 140.351562 174.859375 C 140.316406 174.859375 140.28125 174.859375 140.25 174.859375 C 139.644531 174.882812 139.710938 175.710938 140.316406 175.566406 "/><path style=" stroke:none;fill-rule:evenodd;fill:#efbbb7;fill-opacity:1;" d="M 141.261719 175.0625 C 141.261719 174.886719 141.132812 174.742188 140.972656 174.742188 C 140.816406 174.742188 140.6875 174.886719 140.6875 175.0625 C 140.6875 175.234375 140.816406 175.378906 140.972656 175.378906 C 141.132812 175.378906 141.261719 175.238281 141.261719 175.0625 "/><g clip-rule="nonzero" clip-path="url(#e1a04e8d3e)"><path style=" stroke:none;fill-rule:nonzero;fill:#ff6a94;fill-opacity:1;" d="M 147.316406 191.789062 L 147.316406 189.484375 C 152.457031 189.484375 156.636719 185.304688 156.636719 180.164062 C 156.636719 175.023438 152.457031 170.84375 147.316406 170.84375 L 147.316406 168.539062 C 153.726562 168.539062 158.941406 173.753906 158.941406 180.164062 C 158.941406 186.574219 153.726562 191.789062 147.316406 191.789062 Z M 147.316406 191.789062 "/></g><g style="fill:#c73f61;fill-opacity:1;"><g transform="translate(82.94025, 209.979246)"><path style="stroke:none" d="M 9.625 -4.015625 L 20.0625 -4.015625 C 19.289062 -4.679688 18.675781 -5.472656 18.21875 -6.390625 C 17.769531 -7.304688 17.546875 -8.300781 17.546875 -9.375 L 17.546875 -16.046875 L 19.5625 -18.046875 L 30.078125 -18.046875 L 32.09375 -16.046875 L 32.09375 -2 L 30.078125 0 L 9.625 0 C 8.15625 0 6.84375 -0.40625 5.6875 -1.21875 C 4.539062 -2.039062 3.640625 -3.101562 2.984375 -4.40625 C 2.328125 -5.71875 2 -7.09375 2 -8.53125 L 2.75 -8.53125 C 3.457031 -7.050781 4.367188 -5.925781 5.484375 -5.15625 C 6.609375 -4.394531 7.988281 -4.015625 9.625 -4.015625 Z M 21.5625 -14.046875 L 21.5625 -9.375 C 21.5625 -7.101562 22.296875 -5.316406 23.765625 -4.015625 L 28.078125 -4.015625 L 28.078125 -14.046875 Z M 23.0625 -22.0625 C 23.0625 -22.632812 23.257812 -23.109375 23.65625 -23.484375 C 24.0625 -23.867188 24.53125 -24.0625 25.0625 -24.0625 C 25.632812 -24.0625 26.113281 -23.867188 26.5 -23.484375 C 26.882812 -23.109375 27.078125 -22.632812 27.078125 -22.0625 C 27.078125 -21.53125 26.882812 -21.0625 26.5 -20.65625 C 26.113281 -20.257812 25.632812 -20.0625 25.0625 -20.0625 C 24.53125 -20.0625 24.0625 -20.257812 23.65625 -20.65625 C 23.257812 -21.0625 23.0625 -21.53125 23.0625 -22.0625 Z M 23.0625 -22.0625 "/></g></g><g style="fill:#c73f61;fill-opacity:1;"><g transform="translate(117.039315, 209.979246)"><path style="stroke:none" d="M 2 0 L 2 -32.59375 L 6.015625 -32.59375 L 6.015625 -4.015625 L 8.015625 -4.015625 L 8.015625 0 Z M 2 0 "/></g></g><g style="fill:#c73f61;fill-opacity:1;"><g transform="translate(125.062625, 209.979246)"><path style="stroke:none" d="M 0 0 L -1 -1 L -1 -3.015625 L 0 -4.015625 L 10.03125 -4.015625 L 10.03125 0 Z M 0 0 "/></g></g><g style="fill:#c73f61;fill-opacity:1;"><g transform="translate(135.091759, 209.979246)"><path style="stroke:none" d="M 0 0 L -1 -1 L -1 -3.015625 L 0 -4.015625 L 10.03125 -4.015625 L 10.03125 0 Z M 0 0 "/></g></g><g style="fill:#c73f61;fill-opacity:1;"><g transform="translate(145.120893, 209.979246)"><path style="stroke:none" d="M 0 0 L -1 -1 L -1 -3.015625 L 0 -4.015625 L 10.03125 -4.015625 L 10.03125 0 Z M 0 0 "/></g></g><g style="fill:#c73f61;fill-opacity:1;"><g transform="translate(155.150027, 209.979246)"><path style="stroke:none" d="M 0 0 L -1 -1 L -1 -3.015625 L 0 -4.015625 L 10.03125 -4.015625 L 10.03125 0 Z M 0 0 "/></g></g><g style="fill:#c73f61;fill-opacity:1;"><g transform="translate(165.179161, 209.979246)"><path style="stroke:none" d="M 0 0 L -1 -1 L -1 -3.015625 L 0 -4.015625 L 10.03125 -4.015625 L 10.03125 0 Z M 0 0 "/></g></g><g style="fill:#c73f61;fill-opacity:1;"><g transform="translate(175.208295, 209.979246)"><path style="stroke:none" d="M 0 0 L -1 -1 L -1 -3.015625 L 0 -4.015625 L 10.03125 -4.015625 L 10.03125 0 Z M 0 0 "/></g></g><g style="fill:#c73f61;fill-opacity:1;"><g transform="translate(185.237429, 209.979246)"><path style="stroke:none" d="M 0 0 L -1 -1 L -1 -3.015625 L 0 -4.015625 L 10.03125 -4.015625 L 10.03125 0 Z M 0 0 "/></g></g><g style="fill:#c73f61;fill-opacity:1;"><g transform="translate(195.266563, 209.979246)"><path style="stroke:none" d="M 0 0 L -1 -1 L -1 -3.015625 L 0 -4.015625 L 10.03125 -4.015625 L 10.03125 0 Z M 0 0 "/></g></g><g style="fill:#c73f61;fill-opacity:1;"><g transform="translate(205.295697, 209.979246)"><path style="stroke:none" d="M 0 0 L -1 -1 L -1 -3.015625 L 0 -4.015625 L 10.03125 -4.015625 L 10.03125 0 Z M 0 0 "/></g></g><g style="fill:#c73f61;fill-opacity:1;"><g transform="translate(215.324831, 209.979246)"><path style="stroke:none" d="M 0 0 L -1 -1 L -1 -3.015625 L 0 -4.015625 L 10.03125 -4.015625 L 10.03125 0 Z M 0 0 "/></g></g><g style="fill:#c73f61;fill-opacity:1;"><g transform="translate(225.353965, 209.979246)"><path style="stroke:none" d="M 0 0 L -1 -1 L -1 -3.015625 L 0 -4.015625 L 10.03125 -4.015625 L 10.03125 0 Z M 0 0 "/></g></g><g style="fill:#c73f61;fill-opacity:1;"><g transform="translate(235.383099, 209.979246)"><path style="stroke:none" d="M 0 0 L -1 -1 L -1 -3.015625 L 0 -4.015625 L 10.03125 -4.015625 L 10.03125 0 Z M 0 0 "/></g></g><g style="fill:#c73f61;fill-opacity:1;"><g transform="translate(245.412233, 209.979246)"><path style="stroke:none" d="M 0 0 L -1 -1 L -1 -3.015625 L 0 -4.015625 L 10.03125 -4.015625 L 10.03125 0 Z M 0 0 "/></g></g><g style="fill:#c73f61;fill-opacity:1;"><g transform="translate(255.441367, 209.979246)"><path style="stroke:none" d="M 0 0 L -1 -1 L -1 -3.015625 L 0 -4.015625 L 10.03125 -4.015625 L 10.03125 0 Z M 0 0 "/></g></g><g style="fill:#c73f61;fill-opacity:1;"><g transform="translate(265.470501, 209.979246)"><path style="stroke:none" d="M 0 0 L -1 -1 L -1 -3.015625 L 0 -4.015625 L 4.515625 -4.015625 C 3.742188 -4.679688 3.128906 -5.472656 2.671875 -6.390625 C 2.222656 -7.304688 2 -8.300781 2 -9.375 L 2 -16.046875 L 4.015625 -18.046875 L 14.546875 -18.046875 L 16.546875 -16.046875 L 16.546875 -2 L 14.546875 0 Z M 6.015625 -14.046875 L 6.015625 -9.375 C 6.015625 -7.101562 6.75 -5.316406 8.21875 -4.015625 L 12.53125 -4.015625 L 12.53125 -14.046875 Z M 7.265625 -22.0625 C 7.265625 -22.632812 7.460938 -23.109375 7.859375 -23.484375 C 8.265625 -23.867188 8.738281 -24.0625 9.28125 -24.0625 C 9.84375 -24.0625 10.316406 -23.867188 10.703125 -23.484375 C 11.085938 -23.109375 11.28125 -22.632812 11.28125 -22.0625 C 11.28125 -21.53125 11.085938 -21.0625 10.703125 -20.65625 C 10.316406 -20.257812 9.84375 -20.0625 9.28125 -20.0625 C 8.738281 -20.0625 8.265625 -20.257812 7.859375 -20.65625 C 7.460938 -21.0625 7.265625 -21.53125 7.265625 -22.0625 Z M 7.265625 -22.0625 "/></g></g><g style="fill:#c73f61;fill-opacity:1;"><g transform="translate(284.024401, 209.979246)"><path style="stroke:none" d="M 2 1.40625 L 2 -16.046875 L 6.015625 -16.046875 L 6.015625 1.40625 C 6.015625 2.875 5.601562 4.179688 4.78125 5.328125 C 3.96875 6.484375 2.914062 7.390625 1.625 8.046875 C 0.34375 8.703125 -1.03125 9.03125 -2.5 9.03125 L -2.5 8.265625 C -1.03125 7.566406 0.0820312 6.65625 0.84375 5.53125 C 1.613281 4.414062 2 3.039062 2 1.40625 Z M 2 -20.0625 C 2 -20.625 2.195312 -21.097656 2.59375 -21.484375 C 3 -21.867188 3.472656 -22.0625 4.015625 -22.0625 C 4.578125 -22.0625 5.050781 -21.867188 5.4375 -21.484375 C 5.820312 -21.097656 6.015625 -20.625 6.015625 -20.0625 C 6.015625 -19.519531 5.820312 -19.046875 5.4375 -18.640625 C 5.050781 -18.242188 4.578125 -18.046875 4.015625 -18.046875 C 3.472656 -18.046875 3 -18.242188 2.59375 -18.640625 C 2.195312 -19.046875 2 -19.519531 2 -20.0625 Z M 2 -20.0625 "/></g></g><g clip-rule="nonzero" clip-path="url(#33b0ac5c2d)"><path style=" stroke:none;fill-rule:nonzero;fill:#c73f61;fill-opacity:1;" d="M 102.566406 184.703125 C 104.445312 187.054688 106.308594 189.007812 107.964844 191.585938 C 108.589844 190.84375 109.058594 190.125 109.679688 189.378906 C 111.03125 187.769531 112.023438 186.3125 113.375 184.703125 L 111.070312 182.203125 C 109.027344 182.054688 106.972656 182.046875 104.925781 182.171875 Z M 102.566406 184.703125 "/></g><g clip-rule="nonzero" clip-path="url(#b2835514f8)"><path style=" stroke:none;fill-rule:nonzero;fill:#ff6a94;fill-opacity:1;" d="M 104.925781 182.171875 L 102.566406 184.703125 L 113.375 184.703125 L 111.070312 182.203125 C 109.027344 182.054688 106.972656 182.046875 104.925781 182.171875 Z M 104.925781 182.171875 "/></g><g clip-rule="nonzero" clip-path="url(#a08c93ae7f)"><path style=" stroke:none;fill-rule:nonzero;fill:#ff6a94;fill-opacity:1;" d="M 106.449219 184.703125 L 109.410156 184.703125 L 111.402344 184.75 L 107.964844 191.585938 L 104.578125 184.703125 Z M 106.449219 184.703125 "/></g><path style=" stroke:none;fill-rule:nonzero;fill:#c73f61;fill-opacity:1;" d="M 104.578125 184.703125 L 106.449219 184.703125 L 104.925781 182.171875 Z M 104.578125 184.703125 "/><path style=" stroke:none;fill-rule:nonzero;fill:#c73f61;fill-opacity:1;" d="M 109.410156 184.703125 L 111.402344 184.75 L 111.070312 182.203125 Z M 109.410156 184.703125 "/><g clip-rule="nonzero" clip-path="url(#30325bf112)"><path style=" stroke:none;fill-rule:nonzero;fill:#c73f61;fill-opacity:1;" d="M 108 182.085938 L 106.449219 184.703125 L 107.964844 191.585938 L 109.410156 184.703125 Z M 108 182.085938 "/></g><g clip-rule="nonzero" clip-path="url(#3534656040)"><path style=" stroke:none;fill-rule:nonzero;fill:#c73f61;fill-opacity:1;" d="M 111.140625 182.144531 L 111.136719 182.144531 C 111.128906 182.132812 111.113281 182.125 111.097656 182.121094 C 111.09375 182.121094 111.09375 182.117188 111.09375 182.117188 C 111.089844 182.117188 111.089844 182.117188 111.089844 182.117188 C 111.085938 182.117188 111.082031 182.117188 111.078125 182.113281 C 110.058594 182.039062 109.03125 182 108.003906 181.996094 C 108.003906 181.996094 108.003906 181.996094 108 181.996094 C 108 181.996094 108 181.996094 107.996094 181.996094 C 106.96875 181.988281 105.941406 182.019531 104.921875 182.082031 C 104.917969 182.082031 104.914062 182.082031 104.910156 182.082031 C 104.910156 182.085938 104.910156 182.082031 104.90625 182.082031 C 104.90625 182.082031 104.90625 182.085938 104.902344 182.085938 C 104.886719 182.089844 104.871094 182.097656 104.859375 182.109375 L 102.5 184.640625 C 102.46875 184.671875 102.464844 184.722656 102.496094 184.757812 C 103.066406 185.472656 103.640625 186.15625 104.199219 186.820312 C 105.503906 188.375 106.738281 189.84375 107.890625 191.636719 C 107.890625 191.636719 107.890625 191.636719 107.894531 191.636719 C 107.898438 191.644531 107.90625 191.652344 107.917969 191.660156 C 107.917969 191.660156 107.917969 191.664062 107.917969 191.664062 C 107.921875 191.664062 107.925781 191.664062 107.925781 191.664062 C 107.9375 191.671875 107.945312 191.671875 107.953125 191.675781 C 107.957031 191.675781 107.957031 191.675781 107.960938 191.675781 L 107.96875 191.675781 C 107.980469 191.675781 107.992188 191.671875 108 191.667969 C 108.003906 191.667969 108.007812 191.664062 108.007812 191.664062 C 108.011719 191.664062 108.015625 191.660156 108.015625 191.660156 C 108.023438 191.65625 108.027344 191.652344 108.03125 191.648438 C 108.03125 191.648438 108.035156 191.644531 108.035156 191.644531 C 108.347656 191.269531 108.625 190.898438 108.894531 190.539062 C 109.164062 190.179688 109.4375 189.808594 109.75 189.4375 C 110.425781 188.632812 111.023438 187.851562 111.597656 187.09375 C 112.171875 186.34375 112.769531 185.5625 113.441406 184.757812 C 113.472656 184.722656 113.46875 184.671875 113.441406 184.640625 Z M 111.476562 184.609375 L 111.199219 182.472656 L 113.167969 184.609375 Z M 102.773438 184.609375 L 104.796875 182.441406 L 104.5 184.609375 Z M 107.964844 191.15625 L 106.558594 184.792969 L 109.296875 184.792969 Z M 106.605469 184.613281 L 107.996094 182.269531 L 109.257812 184.613281 Z M 108.152344 182.175781 C 109.074219 182.1875 109.996094 182.222656 110.910156 182.285156 L 109.417969 184.527344 Z M 106.445312 184.527344 L 105.078125 182.253906 C 105.996094 182.199219 106.917969 182.175781 107.839844 182.175781 Z M 104.980469 182.4375 L 106.289062 184.613281 L 104.679688 184.613281 Z M 106.375 184.792969 L 107.71875 190.878906 L 104.722656 184.792969 Z M 109.484375 184.792969 L 111.28125 184.792969 L 108.195312 190.925781 Z M 109.578125 184.613281 L 111.015625 182.457031 L 111.292969 184.613281 Z M 102.753906 184.792969 L 104.519531 184.792969 L 107.308594 190.457031 C 106.367188 189.125 105.375 187.9375 104.335938 186.703125 C 103.820312 186.089844 103.285156 185.453125 102.753906 184.792969 Z M 111.457031 186.984375 C 110.878906 187.738281 110.285156 188.519531 109.609375 189.324219 C 109.296875 189.695312 109.019531 190.070312 108.75 190.429688 C 108.648438 190.566406 108.546875 190.703125 108.441406 190.839844 L 111.480469 184.792969 L 113.183594 184.792969 C 112.554688 185.546875 111.996094 186.277344 111.457031 186.984375 Z M 111.457031 186.984375 "/></g></g></svg>