<svg width="40" height="40" viewBox="0 0 40 40" fill="none" xmlns="http://www.w3.org/2000/svg">
<path d="M29.6666 33.0291L26.0466 34.9258C25.9391 34.9817 25.8183 35.0066 25.6975 34.9978C25.5767 34.9891 25.4608 34.9469 25.3626 34.876C25.2644 34.8051 25.1878 34.7083 25.1414 34.5964C25.095 34.4846 25.0807 34.362 25.0999 34.2424L25.7916 30.2241L22.8632 27.3791C22.7758 27.2946 22.714 27.1872 22.6846 27.0693C22.6553 26.9513 22.6598 26.8274 22.6975 26.7119C22.7352 26.5963 22.8047 26.4936 22.8979 26.4156C22.9912 26.3377 23.1045 26.2875 23.2249 26.2708L27.2716 25.6841L29.0816 22.0291C29.1357 21.9202 29.2191 21.8287 29.3225 21.7646C29.4258 21.7006 29.545 21.6667 29.6666 21.6667C29.7881 21.6667 29.9073 21.7006 30.0107 21.7646C30.114 21.8287 30.1974 21.9202 30.2516 22.0291L32.0616 25.6841L36.1082 26.2708C36.2283 26.288 36.3412 26.3386 36.434 26.4166C36.5268 26.4947 36.596 26.5972 36.6336 26.7125C36.6713 26.8278 36.6759 26.9514 36.6469 27.0692C36.618 27.187 36.5567 27.2943 36.4699 27.3791L33.5416 30.2241L34.2316 34.2408C34.2523 34.3606 34.239 34.4837 34.1932 34.5963C34.1474 34.7089 34.071 34.8065 33.9726 34.8778C33.8741 34.9491 33.7577 34.9914 33.6364 34.9999C33.5152 35.0084 33.394 34.9827 33.2866 34.9258L29.6666 33.0291Z" stroke="#DB0962" stroke-width="2.5" stroke-linecap="round" stroke-linejoin="round"/>
<path d="M10.3331 33.0291L6.71308 34.9258C6.60565 34.9817 6.4848 35.0066 6.36401 34.9978C6.24323 34.9891 6.12726 34.9469 6.02906 34.876C5.93087 34.8051 5.8543 34.7083 5.80792 34.5964C5.76154 34.4846 5.74717 34.362 5.76641 34.2424L6.45808 30.2241L3.52975 27.3791C3.44234 27.2946 3.38045 27.1872 3.35115 27.0693C3.32184 26.9513 3.3263 26.8274 3.36402 26.7119C3.40173 26.5963 3.47118 26.4936 3.56443 26.4156C3.65769 26.3377 3.77099 26.2875 3.89141 26.2708L7.93808 25.6841L9.74808 22.0291C9.80221 21.9202 9.88564 21.8287 9.98899 21.7646C10.0923 21.7006 10.2115 21.6667 10.3331 21.6667C10.4547 21.6667 10.5738 21.7006 10.6772 21.7646C10.7805 21.8287 10.8639 21.9202 10.9181 22.0291L12.7281 25.6841L16.7747 26.2708C16.8948 26.288 17.0077 26.3386 17.1005 26.4166C17.1933 26.4947 17.2625 26.5972 17.3001 26.7125C17.3378 26.8278 17.3424 26.9514 17.3134 27.0692C17.2845 27.187 17.2232 27.2943 17.1364 27.3791L14.2081 30.2241L14.8981 34.2408C14.9188 34.3606 14.9055 34.4837 14.8597 34.5963C14.8139 34.7089 14.7375 34.8065 14.6391 34.8778C14.5406 34.9491 14.4242 34.9914 14.3029 34.9999C14.1817 35.0084 14.0605 34.9827 13.9531 34.9258L10.3331 33.0291Z" stroke="#DB0962" stroke-width="2.5" stroke-linecap="round" stroke-linejoin="round"/>
<path d="M19.9998 16.3624L16.3798 18.2591C16.2724 18.315 16.1515 18.34 16.0308 18.3312C15.91 18.3224 15.794 18.2802 15.6958 18.2093C15.5976 18.1384 15.5211 18.0417 15.4747 17.9298C15.4283 17.8179 15.4139 17.6953 15.4332 17.5758L16.1248 13.5574L13.1965 10.7124C13.1091 10.6279 13.0472 10.5206 13.0179 10.4026C12.9886 10.2846 12.9931 10.1608 13.0308 10.0452C13.0685 9.92961 13.1379 9.82697 13.2312 9.74898C13.3244 9.67099 13.4377 9.62079 13.5582 9.60411L17.6048 9.01744L19.4148 5.36244C19.469 5.25358 19.5524 5.16198 19.6557 5.09795C19.7591 5.03392 19.8783 5 19.9998 5C20.1214 5 20.2406 5.03392 20.3439 5.09795C20.4473 5.16198 20.5307 5.25358 20.5848 5.36244L22.3948 9.01744L26.4415 9.60411C26.5616 9.62138 26.6744 9.6719 26.7672 9.74997C26.8601 9.82803 26.9292 9.93052 26.9669 10.0458C27.0045 10.1612 27.0091 10.2847 26.9802 10.4025C26.9513 10.5203 26.8899 10.6277 26.8032 10.7124L23.8748 13.5574L24.5648 17.5741C24.5855 17.6939 24.5722 17.8171 24.5265 17.9297C24.4807 18.0423 24.4042 18.1398 24.3058 18.2111C24.2074 18.2825 24.0909 18.3248 23.9697 18.3333C23.8484 18.3417 23.7272 18.3161 23.6198 18.2591L19.9998 16.3624Z" stroke="#DB0962" stroke-width="2.5" stroke-linecap="round" stroke-linejoin="round"/>
</svg>
