<svg width="40" height="40" viewBox="0 0 40 40" fill="none" xmlns="http://www.w3.org/2000/svg">
<path d="M35 35L25 25M20 11.6667H15.8333C15.1703 11.6667 14.5344 11.9301 14.0656 12.3989C13.5967 12.8677 13.3333 13.5036 13.3333 14.1667C13.3333 14.8297 13.5967 15.4656 14.0656 15.9344C14.5344 16.4033 15.1703 16.6667 15.8333 16.6667H17.5C18.163 16.6667 18.7989 16.9301 19.2678 17.3989C19.7366 17.8677 20 18.5036 20 19.1667C20 19.8297 19.7366 20.4656 19.2678 20.9344C18.7989 21.4033 18.163 21.6667 17.5 21.6667H13.3333M16.6667 21.6667V23.3333M16.6667 10V11.6667M5 16.6667C5 18.1988 5.30177 19.7158 5.88807 21.1313C6.47438 22.5468 7.33374 23.8329 8.41709 24.9162C9.50044 25.9996 10.7866 26.859 12.202 27.4453C13.6175 28.0316 15.1346 28.3333 16.6667 28.3333C18.1988 28.3333 19.7158 28.0316 21.1313 27.4453C22.5468 26.859 23.8329 25.9996 24.9162 24.9162C25.9996 23.8329 26.859 22.5468 27.4453 21.1313C28.0316 19.7158 28.3333 18.1988 28.3333 16.6667C28.3333 15.1346 28.0316 13.6175 27.4453 12.202C26.859 10.7866 25.9996 9.50044 24.9162 8.41709C23.8329 7.33374 22.5468 6.47438 21.1313 5.88807C19.7158 5.30177 18.1988 5 16.6667 5C15.1346 5 13.6175 5.30177 12.202 5.88807C10.7866 6.47438 9.50044 7.33374 8.41709 8.41709C7.33374 9.50044 6.47438 10.7866 5.88807 12.202C5.30177 13.6175 5 15.1346 5 16.6667Z" stroke="#DB0962" stroke-width="2.5" stroke-linecap="round" stroke-linejoin="round"/>
</svg>
