<svg width="24" height="24" viewBox="0 0 24 24" fill="none" xmlns="http://www.w3.org/2000/svg">
<path fill-rule="evenodd" clip-rule="evenodd" d="M19.6668 8.00006C19.6668 5.9797 18.1688 4.30902 16.2235 4.03835C16.2458 2.95401 15.3735 2 14.2221 2H8.44439C7.29337 2 6.4207 2.95401 6.4437 4.03835C4.49801 4.30902 3 5.98004 3 8.00006V18.0002C3 20.2092 4.79102 22.0002 7.00004 22.0002H13.3334C13.5102 22.0002 13.6798 21.93 13.8048 21.8049C13.9299 21.6799 14.0001 21.5103 14.0001 21.3335C14.0001 21.1567 13.9299 20.9871 13.8048 20.8621C13.6798 20.7371 13.5102 20.6668 13.3334 20.6668H7.00004C6.29279 20.6668 5.6145 20.3859 5.1144 19.8858C4.6143 19.3857 4.33335 18.7074 4.33335 18.0002V8.00006C4.33332 7.33549 4.58144 6.69486 5.02909 6.20368C5.47673 5.7125 6.09165 5.40617 6.75337 5.3447L6.91337 5.89337C7.03454 6.30881 7.28718 6.67373 7.63338 6.93338C7.97957 7.19303 8.40064 7.33338 8.83339 7.33338H13.8334C14.2662 7.33338 14.6873 7.19303 15.0334 6.93338C15.3796 6.67373 15.6323 6.30881 15.7535 5.89337L15.9135 5.3447C16.5752 5.40617 17.1901 5.7125 17.6377 6.20368C18.0854 6.69486 18.3335 7.33549 18.3335 8.00006V12.0001C18.3335 12.1769 18.4037 12.3465 18.5287 12.4715C18.6538 12.5965 18.8233 12.6668 19.0002 12.6668C19.177 12.6668 19.3465 12.5965 19.4716 12.4715C19.5966 12.3465 19.6668 12.1769 19.6668 12.0001V8.00006ZM8.44439 3.33335C8.34089 3.33335 8.23881 3.35744 8.14624 3.40373C8.05367 3.45001 7.97315 3.51722 7.91105 3.60002C7.84895 3.68281 7.80698 3.77893 7.78847 3.88076C7.76995 3.98259 7.7754 4.08733 7.80438 4.18669L8.19338 5.52003C8.23377 5.65851 8.31799 5.78015 8.43339 5.8667C8.54878 5.95325 8.68914 6.00004 8.83339 6.00004H13.8334C13.9777 6.00004 14.118 5.95325 14.2334 5.8667C14.3488 5.78015 14.4331 5.65851 14.4734 5.52003L14.8624 4.18669C14.8914 4.08733 14.8969 3.98259 14.8784 3.88076C14.8598 3.77893 14.8179 3.68281 14.7558 3.60002C14.6937 3.51722 14.6132 3.45001 14.5206 3.40373C14.428 3.35744 14.3259 3.33335 14.2224 3.33335H8.44439Z" fill="white"/>
<path d="M7.33318 9.66602C7.15636 9.66602 6.98679 9.73625 6.86177 9.86128C6.73674 9.98631 6.6665 10.1559 6.6665 10.3327C6.6665 10.5095 6.73674 10.6791 6.86177 10.8041C6.98679 10.9291 7.15636 10.9994 7.33318 10.9994H15.3333C15.5101 10.9994 15.6796 10.9291 15.8047 10.8041C15.9297 10.6791 15.9999 10.5095 15.9999 10.3327C15.9999 10.1559 15.9297 9.98631 15.8047 9.86128C15.6796 9.73625 15.5101 9.66602 15.3333 9.66602H7.33318ZM7.33318 12.9994C7.15636 12.9994 6.98679 13.0696 6.86177 13.1946C6.73674 13.3197 6.6665 13.4892 6.6665 13.6661C6.6665 13.8429 6.73674 14.0124 6.86177 14.1375C6.98679 14.2625 7.15636 14.3327 7.33318 14.3327H9.49986C9.67668 14.3327 9.84625 14.2625 9.97127 14.1375C10.0963 14.0124 10.1665 13.8429 10.1665 13.6661C10.1665 13.4892 10.0963 13.3197 9.97127 13.1946C9.84625 13.0696 9.67668 12.9994 9.49986 12.9994H7.33318ZM6.6665 16.9994C6.6665 16.8226 6.73674 16.653 6.86177 16.528C6.98679 16.403 7.15636 16.3327 7.33318 16.3327H9.49986C9.67668 16.3327 9.84625 16.403 9.97127 16.528C10.0963 16.653 10.1665 16.8226 10.1665 16.9994C10.1665 17.1762 10.0963 17.3458 9.97127 17.4708C9.84625 17.5959 9.67668 17.6661 9.49986 17.6661H7.33318C7.15636 17.6661 6.98679 17.5959 6.86177 17.4708C6.73674 17.3458 6.6665 17.1762 6.6665 16.9994Z" fill="white"/>
<path fill-rule="evenodd" clip-rule="evenodd" d="M16.4385 14.7419C16.2177 14.5076 15.9514 14.321 15.6559 14.1934C15.3604 14.0658 15.042 14 14.7201 14C14.3982 14 14.0798 14.0658 13.7843 14.1934C13.4888 14.321 13.2225 14.5076 13.0018 14.7419C12.1107 15.6809 12.1107 17.1679 13.0018 18.1069L16.1831 21.4593C16.2454 21.5249 16.3204 21.5772 16.4036 21.6129C16.4867 21.6487 16.5763 21.6671 16.6668 21.6671C16.7573 21.6671 16.8469 21.6487 16.93 21.6129C17.0132 21.5772 17.0882 21.5249 17.1505 21.4593L20.3318 18.1069C21.2228 17.1679 21.2228 15.6809 20.3318 14.7419C20.1111 14.5076 19.8448 14.321 19.5493 14.1934C19.2538 14.0658 18.9353 14 18.6135 14C18.2916 14 17.9731 14.0658 17.6776 14.1934C17.3821 14.321 17.1159 14.5076 16.8951 14.7419L16.6668 14.9825L16.4385 14.7419ZM13.9691 15.6599C14.0652 15.5569 14.1815 15.4749 14.3107 15.4188C14.4399 15.3626 14.5793 15.3337 14.7201 15.3337C14.861 15.3337 15.0003 15.3626 15.1295 15.4188C15.2587 15.4749 15.375 15.5569 15.4711 15.6599L16.1831 16.4099C16.2454 16.4755 16.3204 16.5278 16.4036 16.5636C16.4867 16.5993 16.5763 16.6177 16.6668 16.6177C16.7573 16.6177 16.8469 16.5993 16.93 16.5636C17.0132 16.5278 17.0882 16.4755 17.1505 16.4099L17.8625 15.6599C17.9586 15.5569 18.0749 15.4749 18.2041 15.4188C18.3333 15.3626 18.4726 15.3337 18.6135 15.3337C18.7543 15.3337 18.8937 15.3626 19.0229 15.4188C19.1521 15.4749 19.2683 15.5569 19.3645 15.6599C19.5586 15.8672 19.6666 16.1405 19.6666 16.4245C19.6666 16.7085 19.5586 16.9819 19.3645 17.1892L16.6668 20.0319L13.9688 17.1892C13.7746 16.9819 13.6666 16.7085 13.6666 16.4245C13.6666 16.1405 13.7746 15.8672 13.9688 15.6599H13.9691Z" fill="white"/>
</svg>
