<svg width="18" height="20" viewBox="0 0 18 20" fill="none" xmlns="http://www.w3.org/2000/svg">
<path fill-rule="evenodd" clip-rule="evenodd" d="M16.6668 6.00006C16.6668 3.9797 15.1688 2.30902 13.2235 2.03835C13.2458 0.954009 12.3735 0 11.2221 0H5.44439C4.29337 0 3.4207 0.954009 3.4437 2.03835C1.49801 2.30902 0 3.98004 0 6.00006V16.0002C0 18.2092 1.79102 20.0002 4.00004 20.0002H10.3334C10.5102 20.0002 10.6798 19.93 10.8048 19.8049C10.9299 19.6799 11.0001 19.5103 11.0001 19.3335C11.0001 19.1567 10.9299 18.9871 10.8048 18.8621C10.6798 18.7371 10.5102 18.6668 10.3334 18.6668H4.00004C3.29279 18.6668 2.6145 18.3859 2.1144 17.8858C1.6143 17.3857 1.33335 16.7074 1.33335 16.0002V6.00006C1.33332 5.33549 1.58144 4.69486 2.02909 4.20368C2.47673 3.7125 3.09165 3.40617 3.75337 3.3447L3.91337 3.89337C4.03454 4.3088 4.28718 4.67373 4.63338 4.93338C4.97957 5.19303 5.40064 5.33338 5.83339 5.33338H10.8334C11.2662 5.33338 11.6873 5.19303 12.0334 4.93338C12.3796 4.67373 12.6323 4.3088 12.7535 3.89337L12.9135 3.3447C13.5752 3.40617 14.1901 3.7125 14.6377 4.20368C15.0854 4.69486 15.3335 5.33549 15.3335 6.00006V10.0001C15.3335 10.1769 15.4037 10.3465 15.5287 10.4715C15.6538 10.5965 15.8233 10.6668 16.0002 10.6668C16.177 10.6668 16.3465 10.5965 16.4716 10.4715C16.5966 10.3465 16.6668 10.1769 16.6668 10.0001V6.00006ZM5.44439 1.33335C5.34089 1.33335 5.23881 1.35744 5.14624 1.40373C5.05367 1.45001 4.97315 1.51722 4.91105 1.60002C4.84895 1.68281 4.80698 1.77893 4.78847 1.88076C4.76995 1.98259 4.7754 2.08733 4.80438 2.18669L5.19338 3.52003C5.23377 3.65851 5.31799 3.78015 5.43339 3.8667C5.54878 3.95325 5.68914 4.00004 5.83339 4.00004H10.8334C10.9777 4.00004 11.118 3.95325 11.2334 3.8667C11.3488 3.78015 11.4331 3.65851 11.4734 3.52003L11.8624 2.18669C11.8914 2.08733 11.8969 1.98259 11.8784 1.88076C11.8598 1.77893 11.8179 1.68281 11.7558 1.60002C11.6937 1.51722 11.6132 1.45001 11.5206 1.40373C11.428 1.35744 11.3259 1.33335 11.2224 1.33335H5.44439Z" fill="white"/>
<path d="M4.3333 7.66663C4.15649 7.66663 3.98692 7.73686 3.86189 7.86189C3.73686 7.98692 3.66663 8.15649 3.66663 8.3333C3.66663 8.51011 3.73686 8.67968 3.86189 8.80471C3.98692 8.92973 4.15649 8.99997 4.3333 8.99997H12.3334C12.5102 8.99997 12.6798 8.92973 12.8048 8.80471C12.9298 8.67968 13 8.51011 13 8.3333C13 8.15649 12.9298 7.98692 12.8048 7.86189C12.6798 7.73686 12.5102 7.66663 12.3334 7.66663H4.3333ZM4.3333 11C4.15649 11 3.98692 11.0702 3.86189 11.1953C3.73686 11.3203 3.66663 11.4899 3.66663 11.6667C3.66663 11.8435 3.73686 12.013 3.86189 12.1381C3.98692 12.2631 4.15649 12.3333 4.3333 12.3333H6.49999C6.6768 12.3333 6.84637 12.2631 6.9714 12.1381C7.09642 12.013 7.16666 11.8435 7.16666 11.6667C7.16666 11.4899 7.09642 11.3203 6.9714 11.1953C6.84637 11.0702 6.6768 11 6.49999 11H4.3333ZM3.66663 15C3.66663 14.8232 3.73686 14.6536 3.86189 14.5286C3.98692 14.4036 4.15649 14.3334 4.3333 14.3334H6.49999C6.6768 14.3334 6.84637 14.4036 6.9714 14.5286C7.09642 14.6536 7.16666 14.8232 7.16666 15C7.16666 15.1768 7.09642 15.3464 6.9714 15.4714C6.84637 15.5965 6.6768 15.6667 6.49999 15.6667H4.3333C4.15649 15.6667 3.98692 15.5965 3.86189 15.4714C3.73686 15.3464 3.66663 15.1768 3.66663 15Z" fill="white"/>
<path fill-rule="evenodd" clip-rule="evenodd" d="M13.4383 12.7417C13.2176 12.5075 12.9513 12.3208 12.6558 12.1933C12.3603 12.0657 12.0418 11.9999 11.72 11.9999C11.3981 11.9999 11.0797 12.0657 10.7842 12.1933C10.4887 12.3208 10.2224 12.5075 10.0016 12.7417C9.11062 13.6807 9.11062 15.1678 10.0016 16.1068L13.183 19.4591C13.2453 19.5248 13.3203 19.5771 13.4034 19.6128C13.4866 19.6486 13.5762 19.667 13.6667 19.667C13.7572 19.667 13.8467 19.6486 13.9299 19.6128C14.013 19.5771 14.088 19.5248 14.1503 19.4591L17.3317 16.1068C18.2227 15.1678 18.2227 13.6807 17.3317 12.7417C17.111 12.5075 16.8447 12.3208 16.5492 12.1933C16.2537 12.0657 15.9352 11.9999 15.6134 11.9999C15.2915 11.9999 14.973 12.0657 14.6775 12.1933C14.382 12.3208 14.1157 12.5075 13.895 12.7417L13.6667 12.9824L13.4383 12.7417ZM10.969 13.6597C11.0651 13.5568 11.1814 13.4747 11.3106 13.4186C11.4398 13.3625 11.5791 13.3336 11.72 13.3336C11.8608 13.3336 12.0002 13.3625 12.1294 13.4186C12.2586 13.4747 12.3748 13.5568 12.471 13.6597L13.183 14.4097C13.2453 14.4754 13.3203 14.5277 13.4034 14.5634C13.4866 14.5992 13.5762 14.6176 13.6667 14.6176C13.7572 14.6176 13.8467 14.5992 13.9299 14.5634C14.013 14.5277 14.088 14.4754 14.1503 14.4097L14.8623 13.6597C14.9585 13.5568 15.0748 13.4747 15.204 13.4186C15.3332 13.3625 15.4725 13.3336 15.6134 13.3336C15.7542 13.3336 15.8935 13.3625 16.0227 13.4186C16.1519 13.4747 16.2682 13.5568 16.3644 13.6597C16.5585 13.867 16.6665 14.1404 16.6665 14.4244C16.6665 14.7084 16.5585 14.9818 16.3644 15.1891L13.6667 18.0318L10.9686 15.1891C10.7745 14.9818 10.6665 14.7084 10.6665 14.4244C10.6665 14.1404 10.7745 13.867 10.9686 13.6597H10.969Z" fill="white"/>
</svg>
