<svg width="24" height="24" viewBox="0 0 24 24" fill="none" xmlns="http://www.w3.org/2000/svg">
<path d="M8.83574 21.0006C12.0104 21.0006 14.6368 18.3921 14.6368 15.1643C14.6368 14.2995 14.4469 13.4873 14.1094 12.749C13.1813 13.1498 12.5273 14.0779 12.5273 15.1643C12.5273 17.1803 10.8771 18.8911 8.83574 18.8911C6.80009 18.8911 5.14415 17.2 5.14415 15.1643C5.14415 13.1287 6.80009 11.4728 8.83574 11.4728C9.01501 11.4728 9.19438 11.4833 9.37365 11.5149C9.79551 10.8399 10.3229 10.2493 10.9558 9.76408C10.3018 9.51094 9.5846 9.36328 8.83574 9.36328C5.62936 9.36328 2.99951 11.958 2.99951 15.1643C2.99951 18.3707 5.62936 21.0006 8.83574 21.0006Z" fill="white"/>
<path d="M14.784 3.5816C14.0177 2.81526 12.7781 2.8065 11.9999 3.55379C11.2227 2.8065 9.98258 2.81526 9.21575 3.5816C8.44013 4.35722 8.44013 5.61847 9.21575 6.39406L11.9999 9.21334L14.784 6.39406C15.5596 5.61844 15.5596 4.35718 14.784 3.5816Z" fill="white"/>
<path d="M15.1641 18.8911C14.9848 18.8911 14.8055 18.8805 14.6262 18.8489C14.2043 19.5239 13.677 20.1146 13.0441 20.5998C13.698 20.8529 14.4152 21.0006 15.1641 21.0006C18.3705 21.0006 21.0003 18.3707 21.0003 15.1643C21.0003 11.958 18.3705 9.36328 15.1641 9.36328C11.9797 9.36328 9.36304 11.9471 9.36304 15.1643C9.36304 16.0292 9.55289 16.8766 9.89041 17.6148C10.8186 17.214 11.4725 16.2508 11.4725 15.1643C11.4725 13.1484 13.1227 11.4728 15.1641 11.4728C17.1997 11.4728 18.8557 13.1287 18.8557 15.1643C18.8557 17.2 17.1997 18.8911 15.1641 18.8911Z" fill="white"/>
</svg>
