<svg width="24" height="24" viewBox="0 0 24 24" fill="none" xmlns="http://www.w3.org/2000/svg">
<g clip-path="url(#clip0_6302_1514)">
<path d="M11.2909 9.29309C10.3733 8.53997 9.08893 8.55241 8.19633 9.22441C7.17867 8.73447 5.92091 8.98676 5.17498 9.89565C4.29853 10.9637 4.45434 12.5462 5.52511 13.4255L8.88739 16.1594C9.47859 15.4388 8.9456 16.086 11.6374 12.8222C12.5031 11.7864 12.3759 10.1834 11.2909 9.29309ZM10.5501 11.9271L8.68951 14.1829L6.41625 12.3349C5.62229 11.6829 6.08358 10.3875 7.11472 10.3875C7.59156 10.3875 7.80916 10.6367 8.38088 11.0954C8.87579 10.5057 8.8126 10.5811 8.85223 10.5337C9.13724 10.1859 9.59028 10.0593 9.99852 10.1734C10.7546 10.3852 11.0533 11.3125 10.5501 11.9271Z" fill="white"/>
<path d="M4.12718 6.19397C4.08906 5.80699 4.37187 5.46239 4.75885 5.42427L10.8314 4.82617C11.2184 4.78806 11.563 5.07087 11.6011 5.45784C11.6392 5.84482 11.3564 6.18942 10.9694 6.22753L4.89687 6.82564C4.5099 6.86375 4.16529 6.58094 4.12718 6.19397Z" fill="white"/>
<path d="M13.0801 0.768433C14.0922 0.668707 14.994 1.40863 15.0938 2.42078C15.1742 3.23552 15.819 3.88053 16.6338 3.96082L22.0156 4.49109C23.1492 4.60279 23.9779 5.61239 23.8662 6.74597L22.4268 21.3593C22.3151 22.4928 21.3054 23.3213 20.1719 23.2098L8.08008 22.0184C7.61731 21.9727 7.27955 21.5604 7.3252 21.0975C7.3693 20.6477 6.99088 20.2692 6.54102 20.3134L3.82812 20.5809C2.69463 20.6925 1.68491 19.8639 1.57324 18.7303L0.133789 4.11609C0.0223226 2.98265 0.850907 1.97289 1.98438 1.86121L13.0801 0.768433ZM17.7354 5.60925C16.5195 5.48945 15.4976 6.51158 15.6172 7.72742L16.5557 17.2548C16.6673 18.3883 15.8386 19.398 14.7051 19.5096L9.18555 20.0536C9.0583 20.0661 8.95787 20.1666 8.94531 20.2938C8.93083 20.4411 9.03822 20.5723 9.18555 20.5868L18.9199 21.5458C19.9848 21.6507 20.9332 20.8724 21.0381 19.8075L22.2021 7.99695C22.3071 6.93208 21.5287 5.98374 20.4639 5.87878L17.7354 5.60925ZM11.6094 2.45398L3.53613 3.24988C2.47128 3.35484 1.69294 4.30318 1.79785 5.36804L2.96191 17.1786C3.06683 18.2435 4.01517 19.0218 5.08008 18.9169L13.1533 18.121C14.2181 18.016 14.9965 17.0677 14.8916 16.0028L13.7275 4.19226C13.6226 3.12743 12.6742 2.34912 11.6094 2.45398Z" fill="white" stroke="white" stroke-width="0.125"/>
</g>
<defs>
<clipPath id="clip0_6302_1514">
<rect width="24" height="24" fill="white"/>
</clipPath>
</defs>
</svg>
