<svg width="40" height="40" viewBox="0 0 40 40" fill="none" xmlns="http://www.w3.org/2000/svg">
<path d="M31.2567 11.5536V1.65691C31.2567 0.746914 30.5767 0.0869141 29.64 0.0869141H10.48C9.50668 0.0869141 8.74335 0.776914 8.74335 1.65691V11.5536C8.74335 17.0552 13.07 22.1852 18.4083 22.9902C18.4383 22.9936 18.8467 23.0386 19.3333 23.0702V35.4719L14.3917 37.5886C13.8667 37.8119 13.5667 38.3819 13.68 38.9452C13.795 39.5052 14.295 39.9119 14.8667 39.9119L25.0717 39.9102C25.0883 39.9119 25.11 39.9119 25.125 39.9119C25.1383 39.9119 25.1517 39.9119 25.1633 39.9102C25.8183 39.8919 26.3433 39.3569 26.3433 38.7002C26.3433 38.1319 25.9567 37.6452 25.5167 37.5569L20.6667 35.4786V23.0786C26.3233 22.8669 31.2567 17.5219 31.2567 11.5536ZM10.0783 1.65691C10.0783 1.49358 10.3133 1.42025 10.48 1.42025H29.64C29.9217 1.42025 29.9217 1.56191 29.9217 1.65691V10.2902C29.9183 10.2936 29.915 10.2969 29.91 10.3019C29.0867 11.0352 26.58 13.2786 20.7 10.0002C19.115 9.11691 17.5667 8.67191 16.0783 8.67191C15.375 8.67191 14.6833 8.77191 14.0083 8.97025C12.3433 9.46025 11.0333 10.4802 10.08 11.4869L10.0783 1.65691ZM10.2483 13.3452C10.25 13.3419 10.2533 13.3386 10.2567 13.3352C11.085 12.2386 12.4733 10.8136 14.3833 10.2502C16.1367 9.73191 18.0383 10.0436 20.05 11.1669C24.09 13.4186 27.3267 13.6869 29.9133 11.9802C29.685 17.1319 25.38 21.6536 20.49 21.7619C20.48 21.7619 20.47 21.7619 20.46 21.7619C19.785 21.8136 18.5883 21.6702 18.585 21.6686C14.4783 21.0486 11.04 17.4919 10.2483 13.3452ZM15.455 38.5802L19.94 36.6202L24.7083 38.5802H15.455Z" fill="#6D0431"/>
</svg>
