<svg width="40" height="40" viewBox="0 0 40 40" fill="none" xmlns="http://www.w3.org/2000/svg">
<g clip-path="url(#clip0_1_5389)">
<path d="M31.6667 4.99978H30.4718L28.2145 1.23761C28.1493 1.12904 28.0603 1.03676 27.9541 0.967802C27.8479 0.898847 27.7274 0.855032 27.6017 0.839695C27.5517 0.833862 27.3822 0.833195 27.3429 0.833195H12.7222C12.6755 0.833195 12.4634 0.831279 12.3982 0.839695C12.2726 0.855032 12.152 0.898847 12.0458 0.967802C11.9396 1.03676 11.8506 1.12904 11.7854 1.23761L9.52816 4.99978H8.33333C6.34488 5.00199 4.43851 5.79287 3.03246 7.19892C1.62642 8.60496 0.835534 10.5113 0.833328 12.4998V34.9996C0.834056 35.6624 0.833328 37.7004 1.56637 38.4334C2.2994 39.1665 4.33718 39.1657 4.99999 39.1664L35 39.1665C35.6628 39.1657 37.7006 39.1665 38.4336 38.4334C39.1667 37.7004 39.1659 36.0793 39.1667 35.4164V12.4998C39.1645 10.5113 38.3736 8.60496 36.9675 7.19892C35.5615 5.79287 33.6551 5.00199 31.6667 4.99978ZM29.0283 5.83311L24.8348 12.8229L21.1784 9.16645L27.3348 3.01003L29.0283 5.83311ZM21.1173 14.1664H18.8827L18.0713 12.2735L20 10.3449L21.9287 12.2736L21.1173 14.1664ZM23.2739 29.7141L20 32.988L16.7261 29.7141L19.0389 15.8331H20.9611L23.2739 29.7141ZM25.4882 2.49978L20 7.98803L14.5117 2.49978H25.4882ZM12.6652 3.01003L18.8216 9.16645L15.1652 12.8229L10.9717 5.83311L12.6652 3.01003ZM37.588 35.3284C37.5878 35.5494 37.588 36.9233 37.2557 37.2555C36.9235 37.5878 35.221 37.4996 35 37.4998L4.99999 37.4999C4.77903 37.4998 2.98849 37.4998 2.74424 37.2555C2.5 37.0113 2.49999 35.2205 2.49984 34.9996L2.49999 12.4998C2.50187 10.9533 3.11705 9.47062 4.21061 8.37706C5.30416 7.2835 6.78681 6.66832 8.33333 6.66645H9.52816L14.2855 14.5953C14.3506 14.7039 14.4397 14.7961 14.5459 14.8651C14.6521 14.934 14.7726 14.9779 14.8983 14.9932C14.9321 14.9974 14.966 14.9996 15 14.9998C15.221 14.9997 15.4329 14.9119 15.5892 14.7556L16.8024 13.5424L17.4713 15.1032L15.0113 29.8629C14.9896 29.9937 14.9994 30.1278 15.0398 30.2541C15.0803 30.3803 15.1503 30.4951 15.2441 30.5889L19.4107 34.7555C19.567 34.9118 19.779 34.9996 20 34.9996C20.2209 34.9996 20.4329 34.9118 20.5892 34.7555L24.7558 30.5889C24.8496 30.4951 24.9196 30.3803 24.9601 30.2541C25.0006 30.1278 25.0103 29.9937 24.9886 29.8629L22.5286 15.1032L23.1975 13.5424L24.4108 14.7556C24.5671 14.9119 24.779 14.9997 25 14.9998C25.034 14.9996 25.068 14.9975 25.1017 14.9933C25.2274 14.9779 25.348 14.9341 25.4542 14.8652C25.5604 14.7962 25.6494 14.7039 25.7146 14.5954L30.4718 6.66645H31.6667C33.2132 6.66832 34.6958 7.2835 35.7894 8.37706C36.8829 9.47062 37.4981 10.9533 37.5 12.4998L37.588 35.3284Z" fill="#6D0431"/>
</g>
<defs>
<clipPath id="clip0_1_5389">
<rect width="40" height="40" fill="white"/>
</clipPath>
</defs>
</svg>
