<svg width="41" height="40" viewBox="0 0 41 40" fill="none" xmlns="http://www.w3.org/2000/svg">
<path d="M10.2187 35.0823C10.4063 35.0823 10.5943 35.0771 10.7824 35.0674C10.7796 35.2309 10.7778 36.2359 10.7778 36.2359C11.1337 36.3689 14.9995 38.7305 20.6655 38.7305C23.8703 38.7305 27.0795 37.9729 29.946 36.5398L30.5532 36.2359V35.557C30.5532 35.257 30.5482 34.956 30.5388 34.655C33.4863 34.5371 36.3268 33.6138 38.8165 31.9542L39.4286 31.5459L39.2844 30.8247C36.7323 18.0643 26.5842 13.0948 26.3594 12.887L28.1646 6.91017C28.2916 6.49498 28.3559 6.06262 28.3559 5.625C28.3559 3.2016 26.3846 1.23047 23.9614 1.23047C22.6504 1.23047 21.4712 1.80679 20.6655 2.71866C19.8596 1.80679 18.6806 1.23047 17.3696 1.23047C14.9464 1.23047 12.9751 3.2016 12.9751 5.625C12.9751 6.06262 13.0392 6.49498 13.1651 6.90651L14.9718 12.887C14.7334 13.1074 4.60693 18.0233 2.04666 30.8247L1.9313 31.4012C2.12082 31.531 4.97864 35.0826 10.2187 35.0823ZM17.3696 3.42773C18.5811 3.42773 19.5669 4.4101 19.5669 5.61768H21.7641C21.7641 4.4101 22.7499 3.42773 23.9614 3.42773C25.1729 3.42773 26.1587 4.4133 26.1587 5.625C26.1587 5.84473 26.1266 6.06102 26.0623 6.27136L24.2441 12.29H17.0867L15.2678 6.26793C15.2044 6.06102 15.1723 5.84473 15.1723 5.625C15.1723 4.4133 16.1581 3.42773 17.3696 3.42773ZM16.5752 14.4873H24.7556C25.1328 14.8249 34.3053 19.0228 36.9711 30.5205C34.958 31.7171 32.7104 32.379 30.388 32.4616C30.0149 28.933 29.0181 25.4398 27.4894 22.3824L26.0426 19.4888L24.0775 20.4716L25.524 23.3652C27.2509 26.8185 28.2442 30.8775 28.3472 34.8681C23.4892 37.0743 17.842 37.0743 12.984 34.8681C13.087 30.8775 14.0804 26.8185 15.807 23.3652L17.2536 20.4716L15.2884 19.4888L13.8419 22.3824C12.2559 25.5542 11.2424 29.1948 10.9042 32.8578C8.51807 33.0437 6.14044 32.2536 4.32747 30.6626C6.95206 19.0306 16.2044 14.8203 16.5752 14.4873Z" fill="#6D0431" stroke="white" stroke-width="0.5"/>
</svg>
